<svg xmlns="http://w3.org/2000/svg"><defs><font id="icomoon" horiz-adv-x="1024"><font-face units-per-em="1024" ascent="960" descent="-64"/><glyph horiz-adv-x="512"/><glyph unicode="" glyph-name="link" horiz-adv-x="950" d="M831.488 264.704q0 23.552-15.36 38.912L697.344 422.4q-16.384 16.384-38.912 16.384-24.576 0-40.96-18.432l10.24-10.24L640 397.824q3.072-3.072 9.216-11.264t7.168-14.336 2.048-15.36q0-23.552-16.384-38.912t-38.912-16.384q-8.192 0-15.36 2.048t-14.336 7.168T562.176 320t-12.288 12.288-10.24 10.24q-19.456-17.408-19.456-40.96t16.384-38.912l117.76-118.784q15.36-15.36 38.912-15.36 22.528 0 38.912 15.36l83.968 82.944q15.36 16.384 15.36 37.888zM430.08 668.16q0 22.528-15.36 38.912l-117.76 117.76q-16.384 16.384-38.912 16.384t-38.912-15.36l-83.968-83.968q-16.384-15.36-16.384-37.888t16.384-38.912l118.784-118.784q15.36-15.36 38.912-15.36t40.96 17.408l-11.264 11.264-12.288 12.288q-3.072 3.072-8.192 10.24t-7.168 14.336-2.048 16.384q0 22.528 15.36 38.912t38.912 15.36q9.216 0 16.384-2.048t14.336-7.168 10.24-8.192 12.288-12.288 11.264-11.264q18.432 17.408 18.432 41.984zm512-403.456q0-68.608-49.152-115.712L808.96 66.048Q761.856 17.92 693.248 17.92q-69.632 0-116.736 49.152l-117.76 117.76q-47.104 48.128-47.104 116.736 0 69.632 50.176 118.784l-50.176 50.176q-49.152-50.176-118.784-50.176-68.608 0-116.736 48.128L57.344 587.264Q9.216 635.392 9.216 704t48.128 115.712l83.968 83.968q48.128 47.104 116.736 47.104t116.736-48.128L491.52 783.872q48.128-47.104 48.128-115.712 0-70.656-50.176-119.808l50.176-50.176q49.152 50.176 118.784 50.176 68.608 0 116.736-48.128L893.952 381.44q48.128-48.128 48.128-116.736z"/><glyph unicode="" glyph-name="unlink" horiz-adv-x="950" d="M250.88 233.984L104.448 87.552q-5.12-5.12-13.312-5.12-6.144 0-13.312 5.12-5.12 5.12-5.12 13.312t5.12 13.312l146.432 145.408q6.144 5.12 13.312 5.12t13.312-5.12q5.12-5.12 5.12-12.288t-5.12-13.312zm96.256-23.552V27.136q0-8.192-5.12-13.312t-13.312-5.12-12.288 5.12-5.12 13.312v183.296q0 8.192 5.12 13.312t12.288 5.12 13.312-5.12 5.12-13.312zm-128 128q0-8.192-5.12-13.312T200.704 320H18.432q-8.192 0-13.312 5.12T0 338.432t5.12 13.312 13.312 5.12h182.272q8.192 0 13.312-5.12t5.12-13.312zm722.944-73.728q0-68.608-49.152-115.712L808.96 66.048Q761.856 17.92 693.248 17.92q-69.632 0-116.736 49.152L386.048 258.56q-12.288 11.264-24.576 31.744l137.216 10.24 155.648-156.672q15.36-15.36 38.912-15.36t38.912 15.36l83.968 82.944q15.36 16.384 15.36 37.888 0 23.552-15.36 38.912L659.456 461.312l10.24 136.192q20.48-12.288 31.744-23.552L893.952 381.44q48.128-49.152 48.128-116.736zM588.8 678.4l-136.192-10.24L296.96 824.832q-16.384 16.384-38.912 16.384t-38.912-15.36l-83.968-83.968q-16.384-15.36-16.384-37.888t16.384-38.912L291.84 508.416 281.6 371.2q-20.48 12.288-32.768 24.576L57.344 587.264Q9.216 636.416 9.216 704q0 68.608 48.128 115.712l83.968 83.968q48.128 47.104 116.736 47.104t116.736-48.128l190.464-191.488Q577.536 698.88 588.8 678.4zm362.496-47.104q0-8.192-5.12-13.312t-13.312-5.12H749.568q-8.192 0-13.312 5.12t-5.12 13.312 5.12 12.288 13.312 5.12h183.296q8.192 0 13.312-5.12t5.12-12.288zM640 941.568V759.296q0-8.192-5.12-13.312t-13.312-5.12-13.312 5.12-5.12 13.312v182.272q0 8.192 5.12 13.312t13.312 5.12 13.312-5.12 5.12-13.312zm232.448-86.016L726.016 709.12q-6.144-5.12-13.312-5.12t-12.288 5.12q-5.12 6.144-5.12 13.312t5.12 13.312l145.408 145.408q6.144 5.12 13.312 5.12t13.312-5.12q5.12-5.12 5.12-12.288t-5.12-13.312z"/><glyph unicode="" glyph-name="code" horiz-adv-x="1097" d="M352.256 160.256l-28.672-28.672q-5.12-5.12-12.288-5.12t-13.312 5.12l-266.24 266.24q-6.144 6.144-6.144 13.312t6.144 13.312l266.24 266.24q5.12 6.144 13.312 6.144t12.288-6.144l28.672-28.672q6.144-5.12 6.144-13.312t-6.144-12.288L128 411.136 352.256 186.88q6.144-6.144 6.144-13.312t-6.144-13.312zm337.92 610.304L477.184 32.256q-2.048-7.168-9.216-11.264t-13.312-1.024l-34.816 9.216q-8.192 3.072-11.264 9.216t-2.048 14.336l212.992 737.28q3.072 8.192 9.216 11.264t13.312 2.048l35.84-10.24q7.168-2.048 11.264-9.216t1.024-13.312zm375.808-372.736l-266.24-266.24q-6.144-5.12-13.312-5.12t-13.312 5.12l-28.672 28.672q-5.12 6.144-5.12 13.312t5.12 13.312l224.256 224.256-224.256 225.28q-5.12 5.12-5.12 12.288t5.12 13.312l28.672 28.672q6.144 6.144 13.312 6.144t13.312-6.144l266.24-266.24q5.12-5.12 5.12-13.312t-5.12-13.312z"/><glyph unicode="" glyph-name="cancel" horiz-adv-x="804" d="M741.376 204.288q0-22.528-15.36-38.912l-77.824-77.824q-16.384-15.36-38.912-15.36t-38.912 15.36l-167.936 168.96-167.936-168.96q-16.384-15.36-38.912-15.36t-38.912 15.36l-77.824 77.824q-16.384 16.384-16.384 38.912T78.848 243.2l167.936 167.936L78.848 579.072q-16.384 16.384-16.384 38.912t16.384 38.912l77.824 77.824q16.384 16.384 38.912 16.384t38.912-16.384l167.936-167.936L570.368 734.72q16.384 16.384 38.912 16.384t38.912-16.384l77.824-77.824q15.36-15.36 15.36-38.912t-15.36-38.912L558.08 411.136 726.016 243.2q15.36-15.36 15.36-38.912z"/><glyph unicode="" glyph-name="terminal" horiz-adv-x="950" d="M333.824 397.824l-266.24-266.24q-5.12-5.12-12.288-5.12t-13.312 5.12l-28.672 28.672q-6.144 6.144-6.144 13.312t6.144 13.312l224.256 224.256-224.256 225.28q-6.144 5.12-6.144 12.288t6.144 13.312l28.672 28.672q5.12 6.144 13.312 6.144t12.288-6.144l266.24-266.24q6.144-5.12 6.144-13.312t-6.144-13.312zm617.472-261.12v-35.84q0-8.192-5.12-13.312t-13.312-5.12H384q-8.192 0-13.312 5.12t-5.12 13.312v35.84q0 8.192 5.12 13.312t13.312 5.12h548.864q8.192 0 13.312-5.12t5.12-13.312z"/><glyph unicode="" glyph-name="angle-down" horiz-adv-x="657" d="M614.4 539.136q0-7.168-6.144-13.312l-266.24-266.24q-5.12-5.12-13.312-5.12t-12.288 5.12l-266.24 266.24q-6.144 6.144-6.144 13.312t6.144 13.312l27.648 28.672q6.144 6.144 13.312 6.144t13.312-6.144l224.256-224.256 225.28 224.256q5.12 6.144 13.312 6.144t12.288-6.144l28.672-28.672q6.144-5.12 6.144-13.312z"/><glyph unicode="" glyph-name="font" horiz-adv-x="950" d="M414.72 640.512l-97.28-257.024q18.432 0 77.824-1.024t91.136-1.024q11.264 0 32.768 1.024-49.152 144.384-104.448 258.048zM0 8.704L1.024 53.76q13.312 4.096 31.744 7.168t32.768 6.144 28.672 8.192 25.6 17.408 17.408 28.672L272.384 473.6l159.744 413.696h73.728L512 875.008l116.736-274.432q19.456-45.056 61.44-147.456t64.512-156.672q9.216-19.456 33.792-82.944t40.96-96.256q11.264-25.6 19.456-31.744 11.264-9.216 50.176-17.408T947.2 56.832q4.096-22.528 4.096-32.768 0-2.048-1.024-7.168t0-8.192q-35.84 0-108.544 5.12T732.16 17.92q-43.008 0-122.88-4.096T507.904 9.728q0 24.576 2.048 44.032l74.752 16.384q1.024 0 7.168 1.024t9.216 2.048 8.192 3.072 9.216 4.096 6.144 4.096 5.12 6.144 1.024 8.192q0 9.216-17.408 55.296t-40.96 101.376-24.576 57.344l-257.024 1.024q-14.336-33.792-44.032-111.616t-28.672-93.184q0-12.288 8.192-21.504t24.576-14.336 27.648-7.168 32.768-5.12 23.552-2.048q1.024-11.264 1.024-32.768 0-5.12-2.048-16.384-32.768 0-99.328 6.144t-99.328 6.144q-5.12 0-15.36-3.072t-12.288-2.048Q61.44 8.704 0 8.704z"/><glyph unicode="" glyph-name="bold" horiz-adv-x="804" d="M317.44 90.624q41.984-18.432 79.872-18.432 215.04 0 215.04 191.488 0 65.536-23.552 103.424-15.36 24.576-35.84 41.984t-37.888 26.624-46.08 14.336-48.128 6.144-54.272 1.024q-40.96 0-57.344-6.144V360.96q0-60.416-1.024-91.136V176.64q0-21.504 2.048-48.128t7.168-37.888zm-8.192 427.008q23.552-4.096 62.464-4.096 47.104 0 81.92 7.168t62.464 25.6 41.984 51.2 15.36 80.896q0 39.936-16.384 69.632t-46.08 47.104-61.44 24.576-70.656 8.192q-28.672 0-74.752-7.168 0-28.672 3.072-86.016t2.048-87.04V601.6q0-30.72-1.024-45.056 0-26.624 1.024-38.912zM0 8.704l1.024 54.272q9.216 2.048 49.152 9.216t60.416 15.36q4.096 7.168 7.168 15.36t4.096 19.456 4.096 18.432 1.024 21.504 0 19.456v36.864q0 561.152-12.288 585.728-2.048 5.12-12.288 8.192t-25.6 6.144-28.672 4.096-27.648 3.072-17.408 2.048l-2.048 47.104q56.32 1.024 194.56 6.144t212.992 5.12H486.4q39.936 0 77.824-7.168t73.728-24.576 61.44-39.936 41.984-60.416 16.384-77.824q0-29.696-9.216-55.296t-22.528-40.96-36.864-32.768-41.984-25.6T599.04 499.2q88.064-20.48 147.456-76.8t58.368-142.336q0-56.32-20.48-102.4t-53.248-74.752-78.848-48.128-93.184-27.648-100.352-8.192q-25.6 0-75.776 2.048T307.2 22.016q-60.416 0-175.104-6.144T0 8.704z"/><glyph unicode="" glyph-name="italic" horiz-adv-x="585" d="M0 9.728L10.24 58.88q3.072 1.024 46.08 12.288t63.488 21.504q16.384 19.456 23.552 57.344 1.024 4.096 35.84 165.888t64.512 310.272 29.696 168.96v14.336q-13.312 7.168-30.72 11.264t-39.936 4.096-32.768 3.072l10.24 59.392q19.456-2.048 68.608-4.096t86.016-4.096 68.608-1.024q27.648 0 56.32 1.024t68.608 4.096 56.32 4.096q-2.048-22.528-10.24-51.2-17.408-6.144-58.368-16.384t-61.44-19.456q-5.12-10.24-8.192-23.552t-5.12-23.552-4.096-25.6-4.096-24.576q-15.36-83.968-50.176-239.616t-44.032-202.752q-1.024-5.12-7.168-32.768t-11.264-52.224-9.216-47.104-4.096-32.768l1.024-10.24q9.216-3.072 105.472-18.432-2.048-24.576-9.216-56.32-6.144 0-18.432-1.024t-18.432-1.024q-16.384 0-50.176 6.144t-49.152 6.144q-78.848 1.024-117.76 1.024-28.672 0-80.896-5.12T0 10.752z"/><glyph unicode="" glyph-name="header" d="M961.536 8.704q-25.6 0-75.776 2.048t-76.8 2.048q-24.576 0-74.752-2.048t-75.776-2.048q-14.336 0-21.504 12.288t-7.168 25.6q0 17.408 9.216 26.624t22.528 9.216 29.696 4.096 25.6 9.216q18.432 11.264 18.432 79.872v223.232q0 12.288-1.024 17.408-7.168 3.072-28.672 3.072H320.512q-22.528 0-29.696-3.072v-17.408l-1.024-211.968q0-80.896 21.504-94.208 9.216-5.12 26.624-7.168t32.768-2.048 25.6-8.192 11.264-26.624q0-14.336-7.168-26.624t-20.48-13.312q-26.624 0-79.872 2.048T221.184 12.8q-24.576 0-72.704-2.048T75.776 8.704q-13.312 0-20.48 12.288t-7.168 25.6q0 17.408 9.216 25.6t20.48 10.24 26.624 4.096 24.576 9.216q18.432 13.312 18.432 81.92l-1.024 31.744v464.896q0 2.048 1.024 14.336t0 21.504-1.024 21.504-2.048 24.576-4.096 20.48-6.144 18.432-9.216 10.24q-8.192 5.12-25.6 6.144t-29.696 2.048-23.552 7.168-10.24 26.624q0 14.336 6.144 26.624t20.48 13.312q26.624 0 79.872-2.048t78.848-2.048q23.552 0 72.704 2.048t71.68 2.048q14.336 0 21.504-13.312t7.168-26.624q0-17.408-9.216-25.6t-22.528-8.192-28.672-2.048-24.576-7.168q-19.456-12.288-19.456-92.16l1.024-182.272v-18.432q7.168-2.048 22.528-2.048h399.36q14.336 0 21.504 2.048 1.024 6.144 1.024 18.432v182.272q0 79.872-19.456 92.16-10.24 6.144-33.792 7.168t-37.888 7.168-14.336 28.672q0 14.336 7.168 26.624t21.504 13.312q24.576 0 75.776-2.048t74.752-2.048q24.576 0 73.728 2.048t73.728 2.048q14.336 0 21.504-13.312t7.168-26.624q0-17.408-10.24-25.6t-22.528-8.192-29.696-2.048-24.576-7.168q-20.48-13.312-20.48-92.16l1.024-538.624q0-67.584 19.456-79.872 9.216-6.144 25.6-7.168t30.72-3.072 23.552-9.216 10.24-24.576q0-15.36-6.144-27.648t-20.48-13.312z"/><glyph unicode="" glyph-name="align-left" d="M1024 192v-72.704q0-15.36-11.264-25.6t-25.6-11.264H36.864q-15.36 0-25.6 11.264T0 119.296V192q0 15.36 11.264 25.6t25.6 11.264h950.272q15.36 0 25.6-11.264T1024 192zM804.864 411.136v-72.704q0-15.36-11.264-25.6T768 301.568H36.864q-15.36 0-25.6 11.264T0 338.432v72.704q0 15.36 11.264 25.6T36.864 448H768q15.36 0 25.6-11.264t11.264-25.6zm146.432 220.16v-73.728q0-14.336-11.264-25.6t-25.6-11.264H36.864q-15.36 0-25.6 11.264T0 557.568v73.728q0 14.336 11.264 25.6t25.6 10.24h877.568q14.336 0 25.6-10.24t11.264-25.6zm-220.16 219.136v-73.728q0-14.336-10.24-25.6t-25.6-10.24H36.864q-15.36 0-25.6 10.24T0 776.704v73.728q0 14.336 11.264 25.6t25.6 11.264h658.432q14.336 0 25.6-11.264t10.24-25.6z"/><glyph unicode="" glyph-name="align-center" d="M1024 192v-72.704q0-15.36-11.264-25.6t-25.6-11.264H36.864q-15.36 0-25.6 11.264T0 119.296V192q0 15.36 11.264 25.6t25.6 11.264h950.272q15.36 0 25.6-11.264T1024 192zM804.864 411.136v-72.704q0-15.36-11.264-25.6T768 301.568H256q-14.336 0-25.6 11.264t-11.264 25.6v72.704q0 15.36 11.264 25.6T256 448h512q15.36 0 25.6-11.264t11.264-25.6zm146.432 220.16v-73.728q0-14.336-11.264-25.6t-25.6-11.264H109.568q-14.336 0-25.6 11.264t-11.264 25.6v73.728q0 14.336 11.264 25.6t25.6 10.24h804.864q14.336 0 25.6-10.24t11.264-25.6zm-220.16 219.136v-73.728q0-14.336-10.24-25.6t-25.6-10.24H328.704q-14.336 0-25.6 10.24t-10.24 25.6v73.728q0 14.336 10.24 25.6t25.6 11.264h366.592q14.336 0 25.6-11.264t10.24-25.6z"/><glyph unicode="" glyph-name="align-right" d="M1024 192v-72.704q0-15.36-11.264-25.6t-25.6-11.264H36.864q-15.36 0-25.6 11.264T0 119.296V192q0 15.36 11.264 25.6t25.6 11.264h950.272q15.36 0 25.6-11.264T1024 192zm0 219.136v-72.704q0-15.36-11.264-25.6t-25.6-11.264H256q-14.336 0-25.6 11.264t-11.264 25.6v72.704q0 15.36 11.264 25.6T256 448h731.136q15.36 0 25.6-11.264t11.264-25.6zm0 220.16v-73.728q0-14.336-11.264-25.6t-25.6-11.264H109.568q-14.336 0-25.6 11.264t-11.264 25.6v73.728q0 14.336 11.264 25.6t25.6 10.24h877.568q15.36 0 25.6-10.24t11.264-25.6zm0 219.136v-73.728q0-14.336-11.264-25.6t-25.6-10.24H328.704q-14.336 0-25.6 10.24t-10.24 25.6v73.728q0 14.336 10.24 25.6t25.6 11.264h658.432q15.36 0 25.6-11.264t11.264-25.6z"/><glyph unicode="" glyph-name="list-bullet" d="M219.136 155.136q0-45.056-31.744-77.824t-77.824-31.744-77.824 31.744T0 155.136t31.744 77.824 77.824 31.744 77.824-31.744 31.744-77.824zm0 292.864q0-46.08-31.744-77.824t-77.824-31.744-77.824 31.744T0 448t31.744 77.824 77.824 31.744 77.824-31.744T219.136 448zM1024 210.432V100.864q0-7.168-5.12-13.312t-13.312-5.12H311.296q-8.192 0-13.312 5.12t-5.12 13.312v109.568q0 7.168 5.12 12.288t13.312 6.144h694.272q7.168 0 13.312-6.144t5.12-12.288zM219.136 740.864q0-46.08-31.744-77.824t-77.824-31.744-77.824 31.744T0 740.864t31.744 77.824 77.824 31.744 77.824-31.744 31.744-77.824zM1024 503.296V392.704q0-7.168-5.12-12.288t-13.312-5.12H311.296q-8.192 0-13.312 5.12t-5.12 12.288v110.592q0 7.168 5.12 12.288t13.312 5.12h694.272q7.168 0 13.312-5.12t5.12-12.288zm0 291.84V685.568q0-7.168-5.12-12.288t-13.312-6.144H311.296q-8.192 0-13.312 6.144t-5.12 12.288v109.568q0 8.192 5.12 13.312t13.312 5.12h694.272q7.168 0 13.312-5.12t5.12-13.312z"/><glyph unicode="" glyph-name="indent-left" d="M219.136 648.704V320q0-7.168-5.12-13.312t-13.312-5.12q-7.168 0-12.288 5.12L23.552 471.552q-5.12 5.12-5.12 13.312t5.12 13.312l164.864 163.84q5.12 5.12 12.288 5.12 8.192 0 13.312-5.12t5.12-13.312zM1024 210.432V100.864q0-7.168-5.12-13.312t-13.312-5.12H18.432q-7.168 0-13.312 5.12T0 100.864v109.568q0 7.168 5.12 12.288t13.312 6.144h987.136q7.168 0 13.312-6.144t5.12-12.288zm0 219.136V320q0-7.168-5.12-13.312t-13.312-5.12H384q-7.168 0-13.312 5.12T365.568 320v109.568q0 7.168 5.12 13.312T384 448h621.568q7.168 0 13.312-5.12t5.12-13.312zm0 219.136V539.136q0-7.168-5.12-12.288t-13.312-6.144H384q-7.168 0-13.312 6.144t-5.12 12.288v109.568q0 8.192 5.12 13.312t13.312 5.12h621.568q7.168 0 13.312-5.12t5.12-13.312zm0 220.16V759.296q0-8.192-5.12-13.312t-13.312-5.12H18.432q-7.168 0-13.312 5.12T0 759.296v109.568q0 7.168 5.12 12.288t13.312 6.144h987.136q7.168 0 13.312-6.144t5.12-12.288z"/><glyph unicode="" glyph-name="indent-right" d="M200.704 484.864q0-8.192-5.12-13.312L31.744 306.688q-5.12-5.12-13.312-5.12-7.168 0-13.312 5.12T0 320v328.704q0 8.192 5.12 13.312t13.312 5.12 13.312-5.12l163.84-163.84q5.12-5.12 5.12-13.312zM1024 210.432V100.864q0-7.168-5.12-13.312t-13.312-5.12H18.432q-7.168 0-13.312 5.12T0 100.864v109.568q0 7.168 5.12 12.288t13.312 6.144h987.136q7.168 0 13.312-6.144t5.12-12.288zm0 219.136V320q0-7.168-5.12-13.312t-13.312-5.12H384q-7.168 0-13.312 5.12T365.568 320v109.568q0 7.168 5.12 13.312T384 448h621.568q7.168 0 13.312-5.12t5.12-13.312zm0 219.136V539.136q0-7.168-5.12-12.288t-13.312-6.144H384q-7.168 0-13.312 6.144t-5.12 12.288v109.568q0 8.192 5.12 13.312t13.312 5.12h621.568q7.168 0 13.312-5.12t5.12-13.312zm0 220.16V759.296q0-8.192-5.12-13.312t-13.312-5.12H18.432q-7.168 0-13.312 5.12T0 759.296v109.568q0 7.168 5.12 12.288t13.312 6.144h987.136q7.168 0 13.312-6.144t5.12-12.288z"/><glyph unicode="" glyph-name="list-numbered" d="M218.112 34.304q0-46.08-31.744-71.68T109.568-64q-61.44 0-98.304 37.888l31.744 50.176q28.672-25.6 61.44-25.6 16.384 0 28.672 8.192t12.288 24.576q0 35.84-60.416 31.744L70.656 94.72q4.096 6.144 18.432 24.576t24.576 31.744 20.48 21.504v1.024q-9.216 0-27.648-1.024t-27.648 0v-30.72H18.432v87.04h190.464v-50.176l-54.272-66.56q28.672-6.144 46.08-27.648t17.408-50.176zm1.024 358.4v-91.136H12.288q-4.096 20.48-4.096 30.72 0 29.696 14.336 53.248t31.744 38.912 37.888 27.648 31.744 24.576 14.336 25.6q0 14.336-9.216 22.528t-22.528 7.168q-25.6 0-46.08-32.768l-48.128 33.792q13.312 28.672 40.96 45.056t60.416 16.384q40.96 0 69.632-23.552t28.672-64.512q0-28.672-19.456-52.224t-43.008-36.864-43.008-28.672-20.48-30.72h72.704v34.816h60.416zM1024 210.432V100.864q0-8.192-5.12-13.312t-13.312-5.12H311.296q-8.192 0-13.312 5.12t-5.12 13.312v109.568q0 8.192 5.12 13.312t13.312 5.12h694.272q7.168 0 13.312-6.144t5.12-12.288zM219.136 724.48v-57.344H27.648v57.344h61.44v69.632q0 47.104 1.024 68.608v7.168h-1.024q-5.12-10.24-28.672-30.72l-40.96 43.008L97.28 954.88h60.416v-230.4h61.44zM1024 503.296V392.704q0-7.168-5.12-12.288t-13.312-5.12H311.296q-8.192 0-13.312 5.12t-5.12 12.288v110.592q0 7.168 5.12 12.288t13.312 5.12h694.272q7.168 0 13.312-5.12t5.12-12.288zm0 291.84V685.568q0-7.168-5.12-12.288t-13.312-6.144H311.296q-8.192 0-13.312 6.144t-5.12 12.288v109.568q0 8.192 5.12 13.312t13.312 5.12h694.272q7.168 0 13.312-5.12t5.12-13.312z"/><glyph unicode="" glyph-name="underline" horiz-adv-x="878" d="M27.648 833.024q-21.504 1.024-25.6 2.048L0 885.248h22.528q34.816 0 64.512-2.048 75.776-4.096 94.208-4.096 49.152 0 96.256 2.048 66.56 2.048 83.968 3.072 31.744 0 49.152 1.024l-1.024-8.192 1.024-36.864v-5.12q-33.792-5.12-70.656-5.12-33.792 0-45.056-14.336-7.168-7.168-7.168-74.752v-33.792L288.768 576l8.192-159.744q3.072-70.656 28.672-114.688 20.48-33.792 55.296-53.248 50.176-26.624 100.352-26.624 59.392 0 109.568 16.384 31.744 10.24 56.32 28.672 27.648 20.48 37.888 36.864 20.48 31.744 29.696 64.512Q727.04 410.112 727.04 499.2q0 45.056-2.048 73.728t-6.144 69.632-8.192 91.136l-2.048 33.792q-3.072 37.888-13.312 50.176-19.456 20.48-44.032 19.456l-57.344-1.024-8.192 2.048 1.024 49.152h48.128l116.736-6.144q44.032-2.048 112.64 6.144l10.24-2.048q3.072-21.504 3.072-28.672 0-4.096-2.048-17.408-25.6-7.168-48.128-8.192-41.984-6.144-45.056-9.216-8.192-9.216-8.192-23.552v-15.36q0-11.264 1.024-17.408 5.12-11.264 13.312-226.304 3.072-111.616-9.216-174.08-8.192-43.008-23.552-69.632-21.504-36.864-63.488-70.656Q649.216 192 587.776 174.592q-62.464-19.456-145.408-19.456-95.232 0-162.816 26.624t-101.376 69.632Q143.36 294.4 130.048 363.008q-9.216 45.056-9.216 135.168V688.64q0 107.52-9.216 121.856Q97.28 830.976 27.648 832zm849.92-805.888V64q0 8.192-5.12 13.312t-13.312 5.12H18.432q-8.192 0-13.312-5.12T0 64V27.136q0-8.192 5.12-13.312t13.312-5.12h840.704q8.192 0 13.312 5.12t5.12 13.312z"/><glyph unicode="" glyph-name="table" horiz-adv-x="950" d="M292.864 173.568v109.568q0 8.192-5.12 13.312t-13.312 5.12H91.136q-7.168 0-13.312-5.12t-5.12-13.312V173.568q0-8.192 5.12-13.312t13.312-5.12h183.296q8.192 0 13.312 5.12t5.12 13.312zm0 219.136v110.592q0 7.168-5.12 12.288t-13.312 5.12H91.136q-7.168 0-13.312-5.12t-5.12-12.288V392.704q0-7.168 5.12-12.288t13.312-5.12h183.296q8.192 0 13.312 5.12t5.12 12.288zm291.84-219.136v109.568q0 8.192-5.12 13.312t-12.288 5.12H384q-8.192 0-13.312-5.12t-5.12-13.312V173.568q0-8.192 5.12-13.312t13.312-5.12h183.296q7.168 0 12.288 5.12t5.12 13.312zm-291.84 439.296v109.568q0 8.192-5.12 13.312t-13.312 5.12H91.136q-7.168 0-13.312-5.12t-5.12-13.312V612.864q0-8.192 5.12-13.312t13.312-5.12h183.296q8.192 0 13.312 5.12t5.12 13.312zm291.84-220.16v110.592q0 7.168-5.12 12.288t-12.288 5.12H384q-8.192 0-13.312-5.12t-5.12-12.288V392.704q0-7.168 5.12-12.288t13.312-5.12h183.296q7.168 0 12.288 5.12t5.12 12.288zm292.864-219.136v109.568q0 8.192-5.12 13.312t-13.312 5.12H676.864q-8.192 0-13.312-5.12t-5.12-13.312V173.568q0-8.192 5.12-13.312t13.312-5.12h182.272q8.192 0 13.312 5.12t5.12 13.312zM584.704 612.864v109.568q0 8.192-5.12 13.312t-12.288 5.12H384q-8.192 0-13.312-5.12t-5.12-13.312V612.864q0-8.192 5.12-13.312t13.312-5.12h183.296q7.168 0 12.288 5.12t5.12 13.312zm292.864-220.16v110.592q0 7.168-5.12 12.288t-13.312 5.12H676.864q-8.192 0-13.312-5.12t-5.12-12.288V392.704q0-7.168 5.12-12.288t13.312-5.12h182.272q8.192 0 13.312 5.12t5.12 12.288zm0 220.16v109.568q0 8.192-5.12 13.312t-13.312 5.12H676.864q-8.192 0-13.312-5.12t-5.12-13.312V612.864q0-8.192 5.12-13.312t13.312-5.12h182.272q8.192 0 13.312 5.12t5.12 13.312zm73.728 182.272V173.568q0-37.888-27.648-64.512t-64.512-26.624h-768q-36.864 0-64.512 26.624T0 173.568v621.568q0 37.888 26.624 64.512t64.512 27.648h768q37.888 0 64.512-27.648t27.648-64.512z"/><glyph unicode="" glyph-name="eraser" horiz-adv-x="1097" d="M512 155.136l192.512 220.16H265.216L72.704 155.136H512zm578.56 615.424q9.216-19.456 6.144-40.96t-17.408-36.864l-512-585.728Q544.768 82.432 512 82.432H72.704q-21.504 0-38.912 11.264T6.144 125.44q-8.192 19.456-5.12 40.96t17.408 36.864l512 585.728q21.504 24.576 54.272 24.576H1024q21.504 0 39.936-11.264t26.624-31.744z"/><glyph unicode="" glyph-name="text-height" d="M996.352 155.136q19.456 0 24.576-10.24t-6.144-25.6l-72.704-92.16q-11.264-15.36-27.648-15.36t-27.648 15.36l-72.704 92.16q-11.264 15.36-6.144 25.6t23.552 10.24h46.08v585.728h-46.08q-18.432 0-23.552 10.24t6.144 25.6l72.704 92.16q11.264 15.36 27.648 15.36t27.648-15.36l72.704-92.16q11.264-15.36 6.144-25.6t-24.576-10.24h-45.056V155.136h45.056zM46.08 886.272l30.72-15.36q7.168-3.072 120.832-3.072 25.6 0 75.776 1.024t74.752 1.024h314.368q2.048 0 9.216 1.024t10.24 5.12 8.192 10.24l24.576 1.024q2.048 0 7.168-1.024t8.192 0q1.024-63.488 1.024-191.488 0-46.08-2.048-62.464-22.528-8.192-38.912-10.24-14.336 24.576-31.744 72.704-1.024 5.12-6.144 27.648t-8.192 41.984-4.096 20.48q-3.072 4.096-7.168 7.168t-8.192 3.072-8.192 1.024-10.24 1.024-9.216-1.024q-9.216 0-37.888 1.024t-43.008 0-35.84-1.024-40.96-4.096q-5.12-46.08-4.096-76.8 0-54.272 1.024-222.208t1.024-260.096q0-9.216-1.024-40.96t0-52.224 7.168-38.912q22.528-12.288 70.656-24.576t68.608-21.504q2.048-22.528 2.048-28.672 0-8.192-1.024-16.384l-19.456-1.024q-44.032-1.024-124.928 5.12t-117.76 5.12q-28.672 0-87.04-5.12t-86.016-5.12L146.432 38.4v5.12q9.216 15.36 34.816 24.576t56.32 17.408 45.056 15.36q10.24 23.552 10.24 218.112 0 58.368-1.024 173.056t-2.048 174.08v74.752q0 7.168 1.024 14.336t-1.024 15.36-2.048 13.312-3.072 8.192q-6.144 7.168-92.16 7.168-18.432 0-53.248-7.168t-45.056-15.36q-11.264-7.168-19.456-40.96T56.32 672.256t-24.576-30.72Q8.192 656.896 0 667.136v218.112z"/><glyph unicode="" glyph-name="brush" d="M922.624 960q39.936 0 70.656-26.624t29.696-66.56q0-35.84-25.6-86.016-189.44-359.424-266.24-430.08-55.296-52.224-123.904-52.224-72.704 0-123.904 53.248t-52.224 124.928q0 73.728 53.248 121.856L848.896 929.28Q882.688 960 922.624 960zM403.456 369.152q22.528-43.008 60.416-74.752t86.016-43.008l1.024-40.96Q552.96 88.576 477.184 12.8T277.504-64Q207.872-64 153.6-37.376T65.536 35.328 16.384 139.776 0 265.728q4.096-3.072 23.552-17.408t35.84-25.6 32.768-20.48 26.624-9.216q23.552 0 31.744 20.48 14.336 37.888 32.768 64.512t39.936 43.008 50.176 27.648 58.368 14.336 71.68 6.144z"/><glyph unicode="" glyph-name="pencil" horiz-adv-x="878" d="M207.872 82.432l51.2 52.224L124.928 268.8l-52.224-52.224v-61.44h73.728V82.432h61.44zm297.984 530.432q0 12.288-12.288 12.288-5.12 0-9.216-4.096L174.08 311.808q-4.096-4.096-4.096-10.24 0-12.288 13.312-12.288 5.12 0 9.216 4.096l310.272 309.248q3.072 4.096 3.072 10.24zm-30.72 109.568l237.568-237.568L237.568 8.704H0v238.592zm390.144-55.296q0-29.696-20.48-51.2l-95.232-95.232L512 759.296l95.232 94.208q20.48 21.504 51.2 21.504 29.696 0 52.224-21.504L844.8 719.36q20.48-22.528 20.48-52.224z"/><glyph unicode="" glyph-name="minus" horiz-adv-x="804" d="M804.864 539.136V429.568q0-22.528-16.384-38.912t-38.912-15.36H55.296q-23.552 0-38.912 15.36T0 429.568v109.568q0 23.552 16.384 38.912t38.912 16.384h694.272q22.528 0 38.912-16.384t16.384-38.912z"/><glyph unicode="" glyph-name="picture" horiz-adv-x="1097" d="M365.568 631.296q0-46.08-31.744-77.824T256 520.704t-77.824 32.768-31.744 77.824 31.744 76.8T256 740.864t77.824-32.768 31.744-76.8zm585.728-220.16v-256H146.432v109.568L328.704 448l92.16-91.136 291.84 291.84zm54.272 402.432H91.136q-7.168 0-12.288-5.12t-6.144-13.312V100.864q0-8.192 6.144-13.312t12.288-5.12h914.432q7.168 0 13.312 5.12t5.12 13.312v694.272q0 7.168-5.12 13.312t-13.312 5.12zm91.136-18.432V100.864q0-37.888-26.624-64.512t-64.512-27.648H91.136q-36.864 0-64.512 27.648T0 100.864v694.272q0 37.888 26.624 64.512t64.512 27.648h914.432q37.888 0 64.512-27.648t26.624-64.512z"/><glyph unicode="" glyph-name="file-image" horiz-adv-x="878" d="M838.656 742.912q16.384-16.384 27.648-43.008t11.264-51.2V-8.704q0-23.552-15.36-38.912T823.296-64h-768q-23.552 0-38.912 16.384T0-8.704v913.408q0 23.552 16.384 38.912T55.296 960h512q22.528 0 50.176-11.264t43.008-27.648zM584.704 882.176v-215.04h215.04q-5.12 16.384-12.288 23.552l-179.2 179.2q-6.144 7.168-23.552 12.288zM804.864 8.704v585.728H567.296q-23.552 0-38.912 15.36T512 648.704v238.592H72.704V8.704h732.16zm-73.728 256V82.432H146.432V192L256 301.568l72.704-72.704L548.864 448zM256 375.296q-46.08 0-77.824 31.744t-31.744 77.824 31.744 77.824T256 594.432t77.824-31.744 31.744-77.824-31.744-77.824T256 375.296z"/><glyph unicode="" glyph-name="cw" horiz-adv-x="878" d="M877.568 813.568v-256q0-14.336-10.24-25.6t-26.624-11.264h-256q-23.552 0-32.768 23.552-10.24 22.528 7.168 38.912l78.848 78.848q-83.968 78.848-198.656 78.848-59.392 0-113.664-23.552t-93.184-62.464-63.488-93.184T146.432 448t22.528-113.664 63.488-93.184 93.184-62.464 113.664-23.552q67.584 0 128 29.696t102.4 83.968q4.096 6.144 13.312 7.168 8.192 0 14.336-5.12L775.168 192q5.12-4.096 6.144-11.264t-5.12-13.312q-61.44-75.776-150.528-116.736T439.296 8.704q-89.088 0-171.008 34.816t-139.264 94.208-94.208 140.288T0 448t34.816 169.984 94.208 140.288 139.264 94.208 171.008 34.816q83.968 0 161.792-31.744t140.288-90.112l73.728 73.728q16.384 18.432 39.936 8.192 22.528-9.216 22.528-33.792z"/><glyph unicode="" glyph-name="ccw" horiz-adv-x="878" d="M877.568 448q0-89.088-34.816-169.984t-93.184-140.288T609.28 43.52 439.296 8.704q-98.304 0-187.392 41.984T101.376 167.424q-4.096 6.144-4.096 13.312T102.4 192l77.824 78.848q6.144 5.12 14.336 5.12 9.216-1.024 13.312-7.168 41.984-54.272 102.4-83.968t129.024-29.696q59.392 0 112.64 23.552t94.208 62.464 62.464 93.184T731.136 448t-22.528 113.664-62.464 93.184-94.208 62.464-112.64 23.552q-56.32 0-107.52-20.48t-92.16-58.368l78.848-78.848q17.408-16.384 8.192-38.912-10.24-23.552-33.792-23.552h-256q-15.36 0-25.6 11.264T0 557.568v256q0 24.576 22.528 33.792 22.528 10.24 39.936-8.192l73.728-73.728q61.44 58.368 140.288 90.112t162.816 31.744q89.088 0 169.984-34.816t140.288-94.208 93.184-140.288T877.568 448z"/><glyph unicode="" glyph-name="omega" d="M704 64h256l64 128V-64H640v214.214C771.112 206.698 864 347.376 864 512c0 214.432-157.598 382.266-352 382.266-194.406 0-352-167.832-352-382.266 0-164.624 92.886-305.302 224-361.786V-64H0v256L64 64h256v32.59C132.37 163.05 0 323.992 0 512c0 247.424 229.23 448 512 448s512-200.576 512-448c0-188.008-132.37-348.95-320-415.41V64z"/><glyph unicode="" glyph-name="cancel-circle" d="M512 960C229.23 960 0 730.77 0 448S229.23-64 512-64s512 229.23 512 512-229.23 512-512 512zm0-928C282.25 32 96 218.25 96 448s186.25 416 416 416 416-186.25 416-416S741.75 32 512 32zm160 672L512 544 352 704l-96-96 160-160-160-160 96-96 160 160 160-160 96 96-160 160 160 160z"/><glyph unicode="" glyph-name="newspaper" d="M896 704v128H0V128c0-35.346 28.654-64 64-64h864c53.022 0 96 42.978 96 96v544H896zm-64-576H64v640h768V128zM128 640h640v-64H128zm384-128h256v-64H512zm0-128h256v-64H512zm0-128h192v-64H512zM128 512h320V192H128z"/><glyph unicode="" glyph-name="camera" d="M304 352c0-114.876 93.124-208 208-208s208 93.124 208 208-93.124 208-208 208-208-93.124-208-208zm656 352H736c-16 64-32 128-96 128H384c-64 0-80-64-96-128H64c-35.2 0-64-28.8-64-64V64C0 28.8 28.8 0 64 0h896c35.2 0 64 28.8 64 64v576c0 35.2-28.8 64-64 64zM512 68c-156.85 0-284 127.148-284 284 0 156.85 127.15 284 284 284 156.852 0 284-127.15 284-284 0-156.852-127.146-284-284-284zm448 444H832v64h128v-64z"/><glyph unicode="" glyph-name="music" d="M960 960h64V224c0-88.366-100.29-160-224-160s-224 71.634-224 160c0 88.368 100.29 160 224 160 62.684 0 119.342-18.4 160-48.04V704L448 590.222V96C448 7.634 347.712-64 224-64S0 7.634 0 96c0 88.368 100.288 160 224 160 62.684 0 119.342-18.4 160-48.04V832l576 128z"/><glyph unicode="" glyph-name="play" d="M981.188 799.892C837.556 820.542 678.856 832 512.002 832c-166.86 0-325.556-11.458-469.194-32.108C15.278 692.166 0 573.142 0 448 0 322.86 15.278 203.834 42.808 96.11 186.446 75.458 345.144 64 512.002 64c166.854 0 325.552 11.458 469.186 32.11C1008.72 203.834 1024 322.86 1024 448c0 125.142-15.28 244.166-42.812 351.892zM384.002 256v384l320-192-320-192z"/><glyph unicode="" glyph-name="video-camera" d="M384 672c0 88.366 71.634 160 160 160s160-71.634 160-160-71.634-160-160-160-160 71.634-160 160zM0 672c0 88.366 71.634 160 160 160s160-71.634 160-160-71.634-160-160-160S0 583.634 0 672zm768-320v96c0 35.2-28.8 64-64 64H64c-35.2 0-64-28.8-64-64V128c0-35.2 28.8-64 64-64h640c35.2 0 64 28.8 64 64v96l256-160v448L768 352zM640 192H128v192h512V192z"/><glyph unicode="" glyph-name="file-zip" d="M917.806 730.924c-22.208 30.292-53.174 65.7-87.178 99.704s-69.412 64.964-99.704 87.178C679.35 955.626 654.332 960 640 960H144c-44.112 0-80-35.888-80-80V16c0-44.112 35.884-80 80-80h736c44.112 0 80 35.888 80 80v624c0 14.332-4.372 39.35-42.194 90.924zm-132.432 54.45c30.7-30.7 54.8-58.398 72.58-81.374H704v153.946c22.98-17.78 50.678-41.878 81.374-72.572zM896 16c0-8.672-7.328-16-16-16H144c-8.672 0-16 7.328-16 16v864c0 8.672 7.328 16 16 16 0 0 495.956.002 496 0V672c0-17.672 14.322-32 32-32h224V16zM256 896h128v-64H256v64zm128-64h128v-64H384v64zm-128-64h128v-64H256v64zm128-64h128v-64H384v64zm-128-64h128v-64H256v64zm128-64h128v-64H384v64zm-128-64h128v-64H256v64zm128-64h128v-64H384v64zM256 112c0-26.4 21.6-48 48-48h160c26.4 0 48 21.6 48 48v160c0 26.4-21.6 48-48 48h-80v64H256V112zm192 80v-64H320v64h128z"/><glyph unicode="" glyph-name="stack" d="M1024 640L512 896 0 640l512-256 512 256zM512 811.03L854.058 640 512 468.97 169.942 640 512 811.03zm409.444-311.752L1024 448 512 192 0 448l102.556 51.278L512 294.556zm0-192L1024 256 512 0 0 256l102.556 51.278L512 102.556z"/><glyph unicode="" glyph-name="credit-card" d="M928 832H96c-52.8 0-96-43.2-96-96V160c0-52.8 43.2-96 96-96h832c52.8 0 96 43.2 96 96v576c0 52.8-43.2 96-96 96zM96 768h832c17.346 0 32-14.654 32-32v-96H64v96c0 17.346 14.654 32 32 32zm832-640H96c-17.346 0-32 14.654-32 32v288h896V160c0-17.346-14.654-32-32-32zM128 320h64V192h-64zm128 0h64V192h-64zm128 0h64V192h-64z"/><glyph unicode="" glyph-name="address-book" d="M192 960V-64h768V960H192zm384-256.33c70.51 0 127.67-57.16 127.67-127.67S646.51 448.33 576 448.33 448.33 505.49 448.33 576 505.49 703.67 576 703.67zM768 192H384v64c0 70.696 57.306 128 128 128h128c70.696 0 128-57.304 128-128v-64zM64 896h96V704H64v192zm0-256h96V448H64v192zm0-256h96V192H64v192zm0-256h96V-64H64v192z"/><glyph unicode="" glyph-name="envelop" d="M928 832H96c-52.8 0-96-43.2-96-96V96C0 43.2 43.2 0 96 0h832c52.8 0 96 43.2 96 96v640c0 52.8-43.2 96-96 96zM398.74 409.628L128 198.736v501.642l270.74-290.75zM176.38 704h671.24L512 452 176.38 704zm232.908-305.698L512 288l102.71 110.302L825.264 128H198.736l210.552 270.302zm215.972 11.326L896 700.378V198.736L625.26 409.628z"/><glyph unicode="" glyph-name="location" d="M512 960c-176.732 0-320-143.268-320-320 0-320 320-704 320-704s320 384 320 704c0 176.732-143.27 320-320 320zm0-512c-106.04 0-192 85.96-192 192s85.96 192 192 192 192-85.96 192-192-85.96-192-192-192z"/><glyph unicode="" glyph-name="drawer" d="M1016.988 307.99l-256 320A31.998 31.998 0 0 1 736 640H288a31.998 31.998 0 0 1-24.988-12.01l-256-320A32.007 32.007 0 0 1 0 288V0c0-35.346 28.654-64 64-64h896c35.348 0 64 28.654 64 64v288a31.995 31.995 0 0 1-7.012 19.99zM960 256H736L608 128H416L288 256H64v20.776L303.38 576h417.24L960 276.776V256zM736 448H288c-17.672 0-32 14.328-32 32s14.328 32 32 32h448c17.674 0 32-14.328 32-32s-14.326-32-32-32zm64-128H224c-17.672 0-32 14.326-32 32s14.328 32 32 32h576c17.674 0 32-14.326 32-32s-14.326-32-32-32z"/><glyph unicode="" glyph-name="download" d="M512 384l256 256H576v256H448V640H256zm232.726 104.728l-71.74-71.742L933.066 320 512 162.982 90.934 320l260.08 96.986-71.742 71.742L0 384V128L512-64l512 192v256z"/><glyph unicode="" glyph-name="upload" d="M448 384h128v256h192L512 896 256 640h192zm192 144v-98.712L933.066 320 512 162.982 90.934 320 384 429.288V528L0 384V128L512-64l512 192v256z"/><glyph unicode="" glyph-name="quotes-left" d="M225 512c123.712 0 224-100.29 224-224 0-123.712-100.288-224-224-224S1 164.288 1 288l-1 32c0 247.424 200.576 448 448 448V640c-85.474 0-165.834-33.286-226.274-93.726a324.643 324.643 0 0 1-31.83-37.02A225.675 225.675 0 0 0 225 512zm576 0c123.71 0 224-100.29 224-224 0-123.712-100.29-224-224-224S577 164.288 577 288l-1 32c0 247.424 200.576 448 448 448V640c-85.474 0-165.834-33.286-226.274-93.726a324.461 324.461 0 0 1-31.832-37.02A225.7 225.7 0 0 0 801 512z"/><glyph unicode="" glyph-name="enlarge2" d="M1024 960V544L864 704 672 512l-96 96 192 192-160 160zM448 288L256 96 416-64H0v416l160-160 192 192z"/><glyph unicode="" glyph-name="shrink2" d="M448 384V-32L288 128 96-64 0 32l192 192L32 384zm576 480L832 672l160-160H576v416l160-160 192 192z"/><glyph unicode="" glyph-name="lock" d="M592 512h-16v192c0 105.87-86.13 192-192 192H256c-105.87 0-192-86.13-192-192V512H48c-26.4 0-48-21.6-48-48V-16c0-26.4 21.6-48 48-48h544c26.4 0 48 21.6 48 48v480c0 26.4-21.6 48-48 48zM192 704c0 35.29 28.71 64 64 64h128c35.29 0 64-28.71 64-64V512H192v192z"/><glyph unicode="" glyph-name="unlocked" d="M768 896c105.87 0 192-86.13 192-192V512H832v192c0 35.29-28.71 64-64 64H640c-35.29 0-64-28.71-64-64V512h16c26.4 0 48-21.6 48-48V-16c0-26.4-21.6-48-48-48H48C21.6-64 0-42.4 0-16v480c0 26.4 21.6 48 48 48h400v192c0 105.87 86.13 192 192 192h128z"/><glyph unicode="" glyph-name="wrench" d="M1002.934 142.124l-460.552 394.76C563.83 577.182 576 623.166 576 672c0 159.058-128.942 288-288 288-29.094 0-57.172-4.332-83.646-12.354l166.39-166.39c24.89-24.89 24.89-65.62 0-90.51l-101.49-101.49c-24.89-24.89-65.62-24.89-90.51 0l-166.39 166.39C4.332 729.172 0 701.094 0 672c0-159.058 128.942-288 288-288 48.834 0 94.818 12.17 135.116 33.62l394.76-460.552c22.908-26.724 62.016-28.226 86.904-3.338l101.492 101.492c24.888 24.888 23.386 63.994-3.338 86.902z"/><glyph unicode="" glyph-name="eye" d="M512 768C288.682 768 95.118 637.958 0 448c95.118-189.958 288.682-320 512-320 223.312 0 416.876 130.042 512 320-95.116 189.958-288.688 320-512 320zm252.45-169.704C824.612 559.922 875.592 508.522 913.884 448c-38.292-60.522-89.274-111.922-149.436-150.296C688.854 249.486 601.558 224 512 224c-89.56 0-176.858 25.486-252.452 73.704C199.39 336.076 148.41 387.476 110.116 448c38.292 60.524 89.274 111.924 149.434 150.296 3.918 2.5 7.876 4.922 11.86 7.3C261.45 578.268 256 548.774 256 518c0-141.382 114.616-256 256-256 141.382 0 256 114.618 256 256 0 30.774-5.452 60.268-15.408 87.598a481.379 481.379 0 0 0 11.858-7.302zM512 544c0-53.02-42.98-96-96-96s-96 42.98-96 96 42.98 96 96 96 96-42.982 96-96z"/><glyph unicode="" glyph-name="eye-blocked" d="M945.942 945.942c-18.746 18.744-49.136 18.744-67.882 0L675.896 743.778C623.958 759.532 568.948 768 512 768 288.682 768 95.118 637.958 0 448c41.122-82.124 100.648-153.04 173.022-207.096L14.06 81.942c-18.746-18.746-18.746-49.136 0-67.882C23.432 4.686 35.716 0 48 0s24.568 4.686 33.942 14.058l864 864c18.744 18.746 18.744 49.138 0 67.884zM416 640c42.24 0 78.082-27.294 90.92-65.196L385.196 453.08C347.294 465.918 320 501.76 320 544c0 53.02 42.98 96 96 96zM110.116 448c38.292 60.524 89.274 111.924 149.434 150.296 3.918 2.5 7.876 4.922 11.862 7.3C261.45 578.268 256 548.774 256 518c0-54.89 17.286-105.738 46.7-147.418l-60.924-60.924C189.33 346.5 144.574 393.54 110.116 448zM768 518c0 27.166-4.256 53.334-12.102 77.898L434.09 274.09C458.658 266.248 484.832 262 512 262c141.382 0 256 114.618 256 256zm62.026 152.026l-69.362-69.362c1.264-.786 2.53-1.568 3.786-2.368C824.612 559.922 875.592 508.522 913.884 448c-38.292-60.522-89.274-111.922-149.436-150.296C688.854 249.486 601.558 224 512 224a468.97 468.97 0 0 0-113.962 14.04l-76.894-76.894C380.862 139.684 445.094 128 512 128c223.31 0 416.876 130.042 512 320-45.022 89.916-112.118 166.396-193.974 222.026z"/><glyph unicode="" glyph-name="happy" d="M512-64c282.77 0 512 229.23 512 512S794.77 960 512 960 0 730.77 0 448 229.23-64 512-64zm0 928c229.75 0 416-186.25 416-416S741.75 32 512 32 96 218.25 96 448s186.25 416 416 416zm0-502.76c115.95 0 226.23 30.806 320 84.92C817.426 267.722 678.872 128 512 128c-166.868 0-305.422 139.872-320 318.304 93.77-54.112 204.05-85.064 320-85.064zM256 608c0 53.019 28.654 96 64 96s64-42.981 64-96-28.654-96-64-96-64 42.981-64 96zm384 0c0 53.019 28.654 96 64 96s64-42.981 64-96-28.654-96-64-96-64 42.981-64 96z"/><glyph unicode="" glyph-name="command" d="M736 64c-88.224 0-160 71.776-160 160v96H448v-96c0-88.224-71.776-160-160-160s-160 71.776-160 160 71.776 160 160 160h96v128h-96c-88.224 0-160 71.776-160 160s71.776 160 160 160 160-71.776 160-160v-96h128v96c0 88.224 71.776 160 160 160s160-71.776 160-160-71.776-160-160-160h-96V384h96c88.224 0 160-71.776 160-160S824.226 64 736 64zm-96 256v-96c0-52.934 43.066-96 96-96s96 43.066 96 96-43.066 96-96 96h-96zm-352 0c-52.934 0-96-43.066-96-96s43.066-96 96-96 96 43.066 96 96v96h-96zm160 64h128v128H448V384zm192 192h96c52.934 0 96 43.066 96 96s-43.066 96-96 96-96-43.066-96-96v-96zM288 768c-52.934 0-96-43.066-96-96s43.066-96 96-96h96v96c0 52.934-43.064 96-96 96z"/><glyph unicode="" glyph-name="font2" d="M799.596 943.792c-90.526 0-148.62 16.208-241.848 16.208-301.284 0-441.792-171.584-441.792-345.872 0-102.678 48.64-136.458 144.564-136.458-6.758 14.864-18.914 31.08-18.914 104.034 0 204.01 77.006 263.458 175.636 267.51 0 0-80.918-793.374-315.778-888.542V-64h316.594l108.026 512h197.844L768 576H553.092l51.944 246.19c59.446-12.156 117.542-24.316 167.532-24.316 62.148 0 118.894 18.914 149.968 162.126-37.826-12.16-78.362-16.208-122.94-16.208z"/><glyph unicode="" glyph-name="strikethrough" d="M1024 448v-64H789.494C816.998 345.49 832 301.308 832 256c0-70.878-36.66-139.026-100.58-186.964C672.062 24.518 594.136 0 512 0c-82.138 0-160.062 24.518-219.42 69.036C228.66 116.974 192 185.122 192 256h128c0-69.382 87.926-128 192-128s192 58.618 192 128-87.926 128-192 128H0v64h299.518a306.89 306.89 0 0 0-6.938 5.036C228.66 500.976 192 569.122 192 640s36.66 139.024 100.58 186.964C351.938 871.482 429.862 896 512 896c82.136 0 160.062-24.518 219.42-69.036C795.34 779.024 832 710.878 832 640H704c0 69.382-87.926 128-192 128s-192-58.618-192-128 87.926-128 192-128c78.978 0 154.054-22.678 212.482-64H1024z"/><glyph unicode="" glyph-name="sigma" d="M941.606 225.292L986 320h38L960-64H0v74.242l331.546 391.212L0 733v227h980l44-256h-34.376l-18.72 38.88C935.586 816.244 909 832 832 832H170l353.056-353.056L225.636 128H768c116.008 0 146.648 41.578 173.606 97.292z"/><glyph unicode="" glyph-name="sigma2" d="M941.606 225.292L986 320h38L960-64H0v74.242l331.546 391.212L0 733v227h980l44-256h-34.376l-18.72 38.88C935.586 816.244 909 832 832 832H170l353.056-353.056L225.636 128H768c116.008 0 146.648 41.578 173.606 97.292z"/><glyph unicode="" glyph-name="libreoffice" d="M534.626 937.372C522.182 949.816 497.6 960 480 960H96c-17.6 0-32-14.4-32-32V-32c0-17.6 14.4-32 32-32h768c17.6 0 32 14.4 32 32v576c0 17.6-10.182 42.182-22.626 54.626L534.626 937.372zM832 0H128v896h351.158c2.916-.48 8.408-2.754 10.81-4.478l337.556-337.554c1.722-2.402 3.996-7.894 4.476-10.81V0zm32 960H672c-17.6 0-21.818-10.182-9.374-22.626l210.746-210.746C885.818 714.182 896 718.4 896 736v192c0 17.6-14.4 32-32 32z"/><glyph unicode="" glyph-name="search-plus" horiz-adv-x="951" d="M585.143 493.714v-36.571q0-7.429-5.429-12.857t-12.857-5.429h-128v-128q0-7.429-5.429-12.857t-12.857-5.429H384q-7.429 0-12.857 5.429t-5.429 12.857v128h-128q-7.429 0-12.857 5.429t-5.429 12.857v36.571q0 7.429 5.429 12.857T237.714 512h128v128q0 7.429 5.429 12.857T384 658.286h36.571q7.429 0 12.857-5.429T438.857 640V512h128q7.429 0 12.857-5.429t5.429-12.857zm73.143-18.286q0 105.714-75.143 180.857t-180.857 75.143-180.857-75.143-75.143-180.857 75.143-180.857 180.857-75.143 180.857 75.143 75.143 180.857zM950.857 0q0-30.286-21.429-51.714t-51.714-21.429q-30.857 0-51.429 21.714L630.285 144q-102.286-70.857-228-70.857-81.714 0-156.286 31.714t-128.571 85.714-85.714 128.571T0 475.428t31.714 156.286 85.714 128.571 128.571 85.714 156.286 31.714 156.286-31.714 128.571-85.714 85.714-128.571 31.714-156.286q0-125.714-70.857-228l196-196q21.143-21.143 21.143-51.429z"/><glyph unicode="" glyph-name="search-minus" horiz-adv-x="951" d="M585.143 493.714v-36.571q0-7.429-5.429-12.857t-12.857-5.429H237.714q-7.429 0-12.857 5.429t-5.429 12.857v36.571q0 7.429 5.429 12.857T237.714 512h329.143q7.429 0 12.857-5.429t5.429-12.857zm73.143-18.286q0 105.714-75.143 180.857t-180.857 75.143-180.857-75.143-75.143-180.857 75.143-180.857 180.857-75.143 180.857 75.143 75.143 180.857zM950.857 0q0-30.286-21.429-51.714t-51.714-21.429q-30.857 0-51.429 21.714L630.285 144q-102.286-70.857-228-70.857-81.714 0-156.286 31.714t-128.571 85.714-85.714 128.571T0 475.428t31.714 156.286 85.714 128.571 128.571 85.714 156.286 31.714 156.286-31.714 128.571-85.714 85.714-128.571 31.714-156.286q0-125.714-70.857-228l196-196q21.143-21.143 21.143-51.429z"/><glyph unicode="" glyph-name="trash-o" horiz-adv-x="805" d="M292.571 530.286V201.143q0-8-5.143-13.143t-13.143-5.143h-36.571q-8 0-13.143 5.143t-5.143 13.143v329.143q0 8 5.143 13.143t13.143 5.143h36.571q8 0 13.143-5.143t5.143-13.143zm146.286 0V201.143q0-8-5.143-13.143t-13.143-5.143H384q-8 0-13.143 5.143t-5.143 13.143v329.143q0 8 5.143 13.143T384 548.572h36.571q8 0 13.143-5.143t5.143-13.143zm146.286 0V201.143q0-8-5.143-13.143t-13.143-5.143h-36.571q-8 0-13.143 5.143T512 201.143v329.143q0 8 5.143 13.143t13.143 5.143h36.571q8 0 13.143-5.143t5.143-13.143zm73.143-413.715v541.714h-512V116.571q0-12.571 4-23.143t8.286-15.429 6-4.857h475.429q1.714 0 6 4.857t8.286 15.429 4 23.143zm-384 614.857h256l-27.429 66.857q-4 5.143-9.714 6.286H312q-5.714-1.143-9.714-6.286zm530.285-18.285v-36.571q0-8-5.143-13.143t-13.143-5.143h-54.857V116.572q0-47.429-26.857-82T640 .001H164.571Q126.857.001 100 33.43t-26.857 80.857v544H18.286q-8 0-13.143 5.143T0 676.573v36.571q0 8 5.143 13.143t13.143 5.143h176.571l40 95.429q8.571 21.143 30.857 36t45.143 14.857h182.857q22.857 0 45.143-14.857t30.857-36l40-95.429h176.571q8 0 13.143-5.143t5.143-13.143z"/><glyph unicode="" glyph-name="align-justify" d="M1024 182.857v-73.143q0-14.857-10.857-25.714t-25.714-10.857H36.572q-14.857 0-25.714 10.857T.001 109.714v73.143q0 14.857 10.857 25.714t25.714 10.857h950.857q14.857 0 25.714-10.857T1024 182.857zm0 219.429v-73.143q0-14.857-10.857-25.714t-25.714-10.857H36.572q-14.857 0-25.714 10.857T.001 329.143v73.143q0 14.857 10.857 25.714t25.714 10.857h950.857q14.857 0 25.714-10.857T1024 402.286zm0 219.428v-73.143q0-14.857-10.857-25.714T987.429 512H36.572q-14.857 0-25.714 10.857T.001 548.571v73.143q0 14.857 10.857 25.714t25.714 10.857h950.857q14.857 0 25.714-10.857T1024 621.714zm0 219.429V768q0-14.857-10.857-25.714t-25.714-10.857H36.572q-14.857 0-25.714 10.857T.001 768v73.143q0 14.857 10.857 25.714t25.714 10.857h950.857q14.857 0 25.714-10.857T1024 841.143z"/><glyph unicode="" glyph-name="arrows-v" horiz-adv-x="439" d="M402.286 768q0-14.857-10.857-25.714t-25.714-10.857h-73.143V146.286h73.143q14.857 0 25.714-10.857t10.857-25.714-10.857-25.714L245.143-62.285q-10.857-10.857-25.714-10.857t-25.714 10.857L47.429 84.001q-10.857 10.857-10.857 25.714t10.857 25.714 25.714 10.857h73.143v585.143H73.143q-14.857 0-25.714 10.857T36.572 768t10.857 25.714L193.715 940q10.857 10.857 25.714 10.857T245.143 940l146.286-146.286q10.857-10.857 10.857-25.714z"/><glyph unicode="" glyph-name="desktop" horiz-adv-x="1097" d="M1024 384v475.429q0 7.429-5.429 12.857t-12.857 5.429H91.428q-7.429 0-12.857-5.429t-5.429-12.857V384q0-7.429 5.429-12.857t12.857-5.429h914.286q7.429 0 12.857 5.429T1024 384zm73.143 475.428V237.714q0-37.714-26.857-64.571t-64.571-26.857H694.858q0-21.143 9.143-44.286t18.286-40.571 9.143-24.857q0-14.857-10.857-25.714T694.859.001H402.288q-14.857 0-25.714 10.857t-10.857 25.714q0 8 9.143 25.143t18.286 40 9.143 44.571H91.432q-37.714 0-64.571 26.857T.004 237.714v621.714q0 37.714 26.857 64.571t64.571 26.857h914.286q37.714 0 64.571-26.857t26.857-64.571z"/><glyph unicode="" glyph-name="tablet" horiz-adv-x="658" d="M365.714 146.286q0 14.857-10.857 25.714t-25.714 10.857T303.429 172t-10.857-25.714 10.857-25.714 25.714-10.857 25.714 10.857 10.857 25.714zm219.429 91.428v548.571q0 7.429-5.429 12.857t-12.857 5.429H91.428q-7.429 0-12.857-5.429t-5.429-12.857V237.714q0-7.429 5.429-12.857t12.857-5.429h475.429q7.429 0 12.857 5.429t5.429 12.857zm73.143 548.572V164.572q0-37.714-26.857-64.571t-64.571-26.857H91.429q-37.714 0-64.571 26.857T.001 164.572v621.714q0 37.714 26.857 64.571t64.571 26.857h475.429q37.714 0 64.571-26.857t26.857-64.571z"/></font>
</defs>
</svg>
