<?xml version="1.0" standalone="no"?><!DOCTYPE svg PUBLIC "-//W3C//DTD SVG 1.1//EN" "http://www.w3.org/Graphics/SVG/1.1/DTD/svg11.dtd"><svg t="1524450909991" class="icon" style="" viewBox="0 0 1024 1024" version="1.1" xmlns="http://www.w3.org/2000/svg" p-id="5704" xmlns:xlink="http://www.w3.org/1999/xlink" width="200" height="200"><defs><style type="text/css"></style></defs><path d="M1010.864128 969.381888a68.456448 68.456448 0 0 0-3.971072-4.642816c-51.769344-54.331392-373.385216-100.06528-386.033664-197.464064-3.438592-26.4704-4.48512-72.82688-3.508224-84.109312 26.363904-23.898112 47.652864-54.740992 52.772864-63.571968 6.4-11.075584 19.505152-42.10688 29.523968-80.648192 16.66048-1.980416 31.760384-32.978944 42.872832-67.137536 11.907072-36.7616 2.885632-68.94592-14.01856-74.876928 11.569152-48.746496 21.297152-128.233472-7.063552-190.916608-12.849152-28.422144 16.758784-85.645312-36.929536-148.02944-46.01856 69.419008-181.9136-41.541632-286.67904 11.585536-43.143168 21.874688-61.118464 54.325248-67.596288 86.016-34.51904 27.918336-42.962944 63.369216-47.53408 85.118976-11.884544 56.59648-13.71136 106.323968 1.716224 157.986816-14.196736 9.316352-20.819968 39.407616-9.893888 73.115648 11.083776 34.16064 26.20416 65.140736 42.838016 67.137536 10.016768 38.541312 23.158784 69.57056 29.55264 80.648192 5.453824 9.437184 29.345792 44.025856 58.226688 68.390912h1.20832c-0.04096 19.027968-1.265664 59.439104-3.84 79.292416-12.6464 97.398784-335.986688 141.402112-386.031616 197.464064-1.040384 1.165312-2.168832 2.79552-3.33824 4.642816h997.728256l-0.002048-0.002048z" p-id="5705"></path></svg>
