<?xml version="1.0" standalone="no"?><!DOCTYPE svg PUBLIC "-//W3C//DTD SVG 1.1//EN" "http://www.w3.org/Graphics/SVG/1.1/DTD/svg11.dtd"><svg t="1525315651666" class="icon" style="" viewBox="0 0 1024 1024" version="1.1" xmlns="http://www.w3.org/2000/svg" p-id="40243" xmlns:xlink="http://www.w3.org/1999/xlink" width="200" height="200"><defs><style type="text/css"></style></defs><path d="M511.3 509.6m-499.6 0a499.6 499.6 0 1 0 999.2 0 499.6 499.6 0 1 0-999.2 0Z" fill="#D3EBF4" p-id="40244"></path><path d="M674.5 332.7c-47.6-47.6-92-80.5-220.7 48.2-95.4 95.4-223.2 318-255.1 398.9-7.1 18 10.6 35.7 28.6 28.6 80.9-31.9 303.5-159.7 398.9-255.1 128.8-128.6 96-173 48.3-220.6z" fill="#E98F53" p-id="40245"></path><path d="M219.1 818c-7.7 0-15.2-3-21-8.8-8.6-8.6-11.1-20.9-6.7-32.2 33.1-83.9 161.3-306 256.8-401.6 60.9-60.9 107.2-90.3 145.9-92.5 36.4-2.1 61.4 19.8 86 44.3 24.6 24.6 46.4 49.6 44.3 86-2.2 38.6-31.6 85-92.5 145.9-95.6 95.6-317.7 223.8-401.6 256.8-3.7 1.4-7.5 2.1-11.2 2.1z m379.8-519.5c-1.3 0-2.5 0-3.8 0.1-34.1 2-78.4 30.7-135.6 87.9-41.8 41.8-95.2 114.1-150.2 203.5-45 73.1-86.5 150.6-103.1 192.8-2.1 5.4-1 11.1 3.1 15.2s9.8 5.3 15.2 3.1C266.7 784.5 344.2 743 417.3 698c89.4-55.1 161.7-108.4 203.5-150.2 57.2-57.2 85.9-101.5 87.9-135.6 1.7-29.9-17-51.1-39.7-73.9-21.8-21.8-42.2-39.8-70.1-39.8z" fill="#171717" p-id="40246"></path><path d="M674.9 497.9c-3 0-5.7-1.8-6.9-4.7-3.2-8.4-6.9-16.7-11-24.8-1.8-3.6-0.4-8 3.2-9.9 3.6-1.8 8-0.4 9.9 3.2 4.3 8.5 8.2 17.3 11.6 26.2 1.4 3.8-0.5 8-4.3 9.5-0.7 0.3-1.6 0.5-2.5 0.5z m-28.5-54.7c-2.3 0-4.6-1.1-6.1-3.2-6.2-9-13-17.8-20.3-25.9-2.7-3-2.4-7.7 0.6-10.4s7.7-2.4 10.4 0.6c7.7 8.6 14.9 17.8 21.4 27.4 2.3 3.3 1.4 7.9-1.9 10.2-1.2 0.9-2.7 1.3-4.1 1.3z m-45-50.3c-1.7 0-3.4-0.6-4.8-1.8-8.2-7.1-17.1-13.8-26.2-19.9-3.4-2.2-4.3-6.8-2.1-10.2 2.2-3.4 6.8-4.3 10.2-2.1 9.7 6.4 19 13.5 27.7 21 3.1 2.6 3.4 7.3 0.8 10.3-1.5 1.8-3.5 2.7-5.6 2.7z m-56.3-37.3c-1.1 0-2.2-0.2-3.2-0.8-9.8-4.8-20-9.1-30.4-12.8-3.8-1.3-5.8-5.5-4.5-9.4 1.3-3.8 5.5-5.8 9.4-4.5 10.9 3.9 21.7 8.4 32 13.5 3.6 1.8 5.1 6.2 3.3 9.8-1.3 2.7-3.9 4.2-6.6 4.2zM476.4 388c-1 0-1.9-0.2-2.9-0.6-5-2.3-10.1-4.5-15.2-6.6-3.5-1.4-5.2-5.3-3.8-8.8 1.4-3.5 5.3-5.2 8.8-3.8 5.3 2.1 10.7 4.4 15.9 6.9 3.4 1.6 4.9 5.6 3.3 9-1.1 2.4-3.5 3.9-6.1 3.9zM611.4 510.5c-2.3 0-4.6-1.2-5.8-3.3-1.6-2.7-3.3-5.5-5.1-8.2-3.7-5.8-7.5-11.4-11.6-16.9-2.2-3-1.6-7.3 1.5-9.5 3-2.2 7.3-1.6 9.5 1.5 4.2 5.7 8.3 11.7 12.1 17.7 1.8 2.8 3.6 5.7 5.3 8.6 1.9 3.2 0.8 7.4-2.4 9.3-1.1 0.5-2.3 0.8-3.5 0.8zM575 460.8c-1.9 0-3.7-0.8-5-2.2-6.7-7.5-13.9-14.6-21.3-21.4-2.8-2.5-3-6.8-0.5-9.6s6.8-3 9.6-0.5c7.7 7 15.2 14.5 22.2 22.3 2.5 2.8 2.3 7.1-0.5 9.6-1.3 1.3-2.9 1.8-4.5 1.8z m-45.6-41.4c-1.4 0-2.8-0.4-4-1.3-8.1-5.9-16.5-11.6-25.1-16.7-3.2-1.9-4.3-6.1-2.4-9.3 1.9-3.2 6.1-4.3 9.3-2.4 9 5.3 17.8 11.2 26.3 17.4 3 2.2 3.6 6.5 1.4 9.5-1.4 1.9-3.4 2.8-5.5 2.8zM632.5 553.4c-2.7 0-5.2-1.6-6.3-4.3-2-5.1-4.2-10.2-6.6-15.2-1.6-3.4-0.1-7.4 3.3-9 3.4-1.6 7.4-0.1 9 3.3 2.4 5.2 4.7 10.5 6.9 15.9 1.4 3.5-0.3 7.4-3.8 8.8-0.8 0.3-1.7 0.5-2.5 0.5zM435.2 435.7c-0.9 0-1.9-0.2-2.7-0.6-5-2.2-10.2-4.3-15.3-6.3-3.5-1.3-5.3-5.2-3.9-8.7 1.3-3.5 5.2-5.3 8.7-3.9 5.4 2 10.8 4.2 16 6.6 3.4 1.5 5 5.5 3.4 8.9-1.1 2.5-3.6 4-6.2 4zM565.6 551.4c-2.3 0-4.6-1.2-5.8-3.3-1.5-2.5-3-5-4.5-7.4-3.6-5.7-7.4-11.3-11.4-16.6-2.2-3-1.6-7.2 1.4-9.5 3-2.2 7.2-1.6 9.5 1.4 4.2 5.6 8.2 11.5 12 17.4 1.6 2.5 3.2 5.1 4.7 7.7 1.9 3.2 0.8 7.4-2.4 9.3-1.1 0.7-2.3 1-3.5 1z m-35.1-47.3c-1.8 0-3.7-0.7-5-2.2-6.5-7.1-13.4-13.9-20.5-20.2-2.8-2.5-3.1-6.8-0.6-9.6s6.8-3.1 9.6-0.6c7.5 6.7 14.8 13.8 21.5 21.2 2.5 2.8 2.3 7-0.4 9.6-1.3 1.2-2.9 1.8-4.6 1.8zM486.4 465c-1.4 0-2.7-0.4-3.9-1.3-7.8-5.6-15.9-10.8-24.3-15.6-3.2-1.9-4.4-6-2.5-9.2 1.9-3.2 6-4.4 9.2-2.5 8.7 5 17.3 10.5 25.4 16.3 3 2.2 3.7 6.4 1.6 9.4-1.3 1.9-3.4 2.9-5.5 2.9zM586 593.2c-2.7 0-5.3-1.6-6.3-4.3-2-5.1-4.2-10.2-6.5-15.2-1.6-3.4-0.1-7.4 3.3-9 3.4-1.6 7.4-0.1 9 3.3 2.4 5.2 4.7 10.6 6.8 16 1.4 3.5-0.4 7.4-3.8 8.8-0.9 0.2-1.7 0.4-2.5 0.4zM389 495c-0.8 0-1.7-0.2-2.5-0.5-5.1-2-10.3-3.9-15.5-5.6-3.6-1.2-5.5-5-4.3-8.5 1.2-3.6 5-5.5 8.5-4.3 5.5 1.8 11 3.8 16.3 5.9 3.5 1.4 5.2 5.3 3.8 8.8-1 2.6-3.6 4.2-6.3 4.2zM504.5 588c-2.2 0-4.4-1.1-5.7-3.1-6.7-10.2-14.2-19.9-22.4-28.8-2.5-2.8-2.3-7 0.4-9.6 2.8-2.5 7-2.3 9.6 0.4 8.7 9.5 16.6 19.8 23.7 30.5 2.1 3.1 1.2 7.3-1.9 9.4-1.2 0.8-2.5 1.2-3.7 1.2z m-50.6-55.4c-1.5 0-3-0.5-4.2-1.5-9.4-7.5-19.6-14.5-30.2-20.6-3.2-1.9-4.3-6-2.5-9.3 1.9-3.2 6-4.3 9.3-2.5 11.2 6.5 21.9 13.8 31.9 21.8 2.9 2.3 3.4 6.6 1.1 9.5-1.4 1.7-3.4 2.6-5.4 2.6zM529 636.6c-2.8 0-5.3-1.7-6.4-4.4-1.9-5.1-4-10.2-6.2-15.2-1.5-3.4 0-7.4 3.4-9 3.4-1.5 7.4 0 9 3.4 2.4 5.3 4.6 10.7 6.6 16.1 1.3 3.5-0.5 7.4-4 8.7-0.8 0.3-1.6 0.4-2.4 0.4z" fill="#171717" p-id="40247"></path><path d="M342.3 560.7c-0.7 0-1.4-0.1-2.1-0.3-5.1-1.7-10.5-3.2-15.8-4.5-3.6-0.9-5.8-4.6-4.9-8.2 0.9-3.6 4.6-5.8 8.2-4.9 5.7 1.4 11.3 3 16.7 4.8 3.6 1.2 5.5 5 4.4 8.5-1 2.8-3.6 4.6-6.5 4.6zM444.9 635.3c-2.2 0-4.3-1-5.6-3-5.8-8.5-12.4-16.6-19.7-24-2.6-2.7-2.6-7 0.1-9.6 2.7-2.6 7-2.6 9.6 0.1 7.8 8 15 16.7 21.2 25.9 2.1 3.1 1.3 7.3-1.8 9.4-1.1 0.8-2.5 1.2-3.8 1.2z m-45-45.9c-1.4 0-2.7-0.4-3.9-1.3-8.3-5.9-17.3-11.3-26.8-16-3.4-1.7-4.7-5.7-3.1-9.1 1.7-3.4 5.7-4.7 9.1-3.1 10.1 5 19.7 10.8 28.6 17.1 3 2.2 3.7 6.4 1.6 9.4-1.3 2-3.4 3-5.5 3zM466.7 679.3c-2.8 0-5.5-1.8-6.4-4.6-1.7-5.1-3.7-10.3-5.9-15.2-1.5-3.4 0-7.4 3.5-8.9 3.4-1.5 7.4 0 8.9 3.5 2.3 5.3 4.5 10.8 6.3 16.4 1.2 3.5-0.7 7.4-4.3 8.6-0.7 0.1-1.4 0.2-2.1 0.2z" fill="#171717" p-id="40248"></path><path d="M299.4 628.1c-0.6 0-1.1-0.1-1.7-0.2-5.2-1.3-10.6-2.5-16-3.5-3.7-0.6-6.1-4.2-5.5-7.8 0.6-3.7 4.2-6.1 7.8-5.5 5.8 1 11.6 2.3 17.1 3.7 3.6 0.9 5.8 4.6 4.9 8.3-0.8 3-3.5 5-6.6 5zM372 669.4c-1.8 0-3.7-0.8-5-2.2-8.6-9.5-19.2-17.8-31.5-24.5-3.3-1.8-4.5-5.9-2.7-9.2 1.8-3.3 5.9-4.5 9.2-2.7 13.6 7.5 25.4 16.7 35 27.3 2.5 2.8 2.3 7.1-0.5 9.6-1.2 1.1-2.8 1.7-4.5 1.7zM398.7 721.6c-3.1 0-5.9-2.2-6.6-5.3-1.1-5.2-2.6-10.4-4.5-15.3-1.3-3.5 0.5-7.4 4-8.7 3.5-1.3 7.4 0.5 8.7 4 2.1 5.5 3.8 11.3 5 17.2 0.8 3.7-1.5 7.3-5.2 8-0.5 0-1 0.1-1.4 0.1z" fill="#171717" p-id="40249"></path><path d="M272.6 683.7c-0.9 0-1.8-0.2-2.7-0.6-4.8-2.1-9.9-4.1-15.3-5.9-3.5-1.2-5.4-5-4.2-8.6 1.2-3.5 5-5.4 8.6-4.2 5.7 1.9 11.2 4 16.3 6.3 3.4 1.5 5 5.5 3.5 8.9-1.1 2.6-3.6 4.1-6.2 4.1zM320.2 719.8c-2.2 0-4.4-1.1-5.7-3-4.6-7-11.2-13.6-19.5-19.6-3-2.2-3.7-6.4-1.5-9.5 2.2-3 6.4-3.7 9.5-1.5 9.6 6.9 17.3 14.7 22.9 23.1 2.1 3.1 1.2 7.3-1.9 9.4-1.2 0.7-2.5 1.1-3.8 1.1zM328.4 764.9c-0.5 0-1-0.1-1.5-0.2-3.7-0.8-5.9-4.4-5.1-8.1 1.1-5.1 1.6-10.1 1.3-14.9-0.2-3.7 2.6-6.9 6.4-7.2 3.7-0.3 6.9 2.6 7.2 6.4 0.4 6.1-0.2 12.4-1.6 18.7-0.8 3.1-3.6 5.3-6.7 5.3z" fill="#171717" p-id="40250"></path><path d="M249.7 745.3c-1.5 0-3-0.5-4.2-1.5-4.1-3.2-8.5-6.5-13.2-9.6-3.1-2.1-4-6.3-1.9-9.4 2.1-3.1 6.3-4 9.4-1.9 5 3.3 9.8 6.8 14.2 10.3 2.9 2.3 3.4 6.6 1.1 9.5-1.4 1.8-3.4 2.6-5.4 2.6zM280.8 779.9c-2.4 0-4.7-1.2-5.9-3.5-2.4-4.3-5.4-8.7-8.9-12.9-2.4-2.9-2-7.2 0.9-9.5 2.9-2.4 7.2-2 9.5 0.9 4 4.9 7.5 9.9 10.3 14.9 1.8 3.3 0.7 7.4-2.6 9.2-1.1 0.6-2.2 0.9-3.3 0.9z" fill="#171717" p-id="40251"></path><path d="M825.3 353.8c2.8-17.1-29.4-41.4-72.5-55.4 10-4.2 20.6-11 30.3-20.1 25.5-23.9 35.7-54.4 22.8-68.2-12.9-13.8-44-5.6-69.5 18.3-14 13.1-23.3 28.2-26.8 41.4-1.5-35.7-15.1-65.8-30.5-67.4-15.5-1.6-26.9 26.1-25.5 61.9 0.6 16.5 4 31.7 8.8 43.6 0.6 5.4 4.2 11.4 10.2 17.5 0.3 0.3 0.5 0.6 0.8 0.8 13.2 12.9 37.1 26 65.2 34.6 45.1 13.7 83.9 10.6 86.7-7z" fill="#83B764" p-id="40252"></path><path d="M789.7 377.3c-15.4 0-33.8-3-53.3-8.9-28.3-8.6-53.8-22.2-68.4-36.5l-0.1-0.1-0.9-0.9c-7-7.1-11.1-14.1-12.2-20.9-5.2-13.1-8.4-29.2-9-45.3-1.1-28.5 5.4-52.9 17-63.8 5.1-4.7 11-6.9 17.2-6.2 16.6 1.8 28.5 23.1 34.1 48 4.7-7 10.5-13.7 17.1-19.9 13.3-12.4 28.5-21.4 42.9-25.1 16.1-4.2 29.5-1.7 37.8 7.2 16.1 17.2 5.9 52.1-23.2 79.3-5.2 4.9-10.8 9.3-16.5 13 35 14.4 64.5 37 61.1 58-0.7 4.3-3.1 10.4-10.7 15.1-7.8 4.6-19.2 7-32.9 7z m-110.6-56.7c12.9 12.5 36 24.7 62 32.6 36.3 11.1 63.3 9.6 73 3.5 3.1-1.9 3.4-3.6 3.5-4.2 1.6-9.9-23.1-32.4-67.1-46.6-3.1-1-5.3-3.9-5.5-7.2-0.1-3.3 1.8-6.3 4.8-7.6 9.6-4 19.2-10.4 28-18.6 23.8-22.3 31-47.9 22.5-57-4.1-4.4-12.2-5.4-22.2-2.7-11.9 3.1-24.7 10.7-36.1 21.4-12.4 11.6-21.3 25.3-24.6 37.7-1 3.8-4.6 6.3-8.5 5.8-3.9-0.4-6.9-3.6-7-7.5-0.7-16.3-4-31.7-9.3-43.6-5.2-11.5-10.9-16-14.1-16.4-1-0.1-2.5 0-4.7 2.1-9.3 8.7-12.8 32.9-12 51.7 0.6 14.7 3.5 29.3 8.2 40.9 0.3 0.7 0.5 1.4 0.5 2.1 0.2 2 1.5 6.3 8 12.8l0.2 0.2c0 0.2 0.2 0.4 0.4 0.6z" fill="#151515" p-id="40253"></path></svg>