<?xml version="1.0" standalone="no"?><!DOCTYPE svg PUBLIC "-//W3C//DTD SVG 1.1//EN" "http://www.w3.org/Graphics/SVG/1.1/DTD/svg11.dtd"><svg t="1526438273292" class="icon" style="" viewBox="0 0 1024 1024" version="1.1" xmlns="http://www.w3.org/2000/svg" p-id="1863" xmlns:xlink="http://www.w3.org/1999/xlink" width="200" height="200"><defs><style type="text/css"></style></defs><path d="M934.616169 716.707904 313.789947 716.707904c-12.893375 0-23.740182-9.311882-25.582093-21.795943L194.782053 153.390227l-105.398221 0c-14.325972 0-25.889078-11.358449-25.889078-25.479764s11.563106-25.377436 25.889078-25.377436l127.808134 0c12.893375 0 23.740182 9.311882 25.582093 21.795943L336.302188 665.850705l598.31398 0c14.325972 0 25.889078 11.358449 25.889078 25.377436S948.942141 716.707904 934.616169 716.707904z" p-id="1864"></path><path d="M300.589587 630.240432c-5.116419 0-10.130509-1.432597-14.4283-4.297792-6.139702-3.990806-10.130509-10.335165-11.256121-17.498151L208.084741 232.080743c-1.023284-7.265314 1.125612-14.735285 6.037374-20.261017 4.911762-5.525732 12.074748-8.80024 19.544719-8.80024l685.60008 0c7.469971 0 14.530629 3.172179 19.44239 8.697911 4.911762 5.525732 7.162986 12.791046 6.242031 20.056361L906.680524 507.855701c-1.330269 10.335165-9.004897 18.82842-19.237734 21.386629l-580.508844 100.281803C304.78505 629.933447 302.738483 630.240432 300.589587 630.240432z" p-id="1865"></path><path d="M424.202258 935.48596c-52.289797 0-94.858399-41.852303-94.858399-93.221145 0-51.368842 42.568602-93.221145 94.858399-93.221145s94.858399 41.749975 94.858399 93.221145C519.162986 893.735985 476.594384 935.48596 424.202258 935.48596z" p-id="1866"></path><path d="M751.141401 935.48596c-52.289797 0-94.858399-41.852303-94.858399-93.221145 0-51.368842 42.568602-93.221145 94.858399-93.221145 52.289797 0 94.858399 41.749975 94.858399 93.221145C845.9998 893.735985 803.431198 935.48596 751.141401 935.48596z" p-id="1867"></path><path d="M259.146597 127.910463c0 17.088838-14.121315 31.005496-31.517138 31.005496s-31.517138-13.81433-31.517138-31.005496 14.121315-31.005496 31.517138-31.005496S259.146597 110.821625 259.146597 127.910463z" p-id="1868"></path><path d="M227.629459 167.306885c-22.102928 0-40.112721-17.702808-40.112721-39.396423s18.009793-39.396423 40.112721-39.396423 40.112721 17.702808 40.112721 39.396423C267.844509 149.706406 249.834716 167.306885 227.629459 167.306885zM227.629459 105.398221c-12.58639 0-22.921555 10.130509-22.921555 22.512241s10.232837 22.512241 22.921555 22.512241c12.58639 0 22.921555-10.130509 22.921555-22.512241S240.318177 105.398221 227.629459 105.398221z" p-id="1869"></path></svg>