<?xml version="1.0" standalone="no"?><!DOCTYPE svg PUBLIC "-//W3C//DTD SVG 1.1//EN" "http://www.w3.org/Graphics/SVG/1.1/DTD/svg11.dtd"><svg class="icon" width="200px" height="200.00px" viewBox="0 0 1024 1024" version="1.1" xmlns="http://www.w3.org/2000/svg"><path d="M512 64C264.64 64 64 264.576 64 512c0 247.36 200.64 448 448 448 247.424 0 448-200.64 448-448C960 264.576 759.424 64 512 64zM511.936 896.768C299.52 896.768 127.232 724.48 127.232 512S299.52 127.232 511.936 127.232c212.48 0 384.704 172.224 384.704 384.768S724.416 896.768 511.936 896.768zM584 440l-288-144 144 288 288 144L584 440zM472.768 552.896 362.112 363.648l189.632 108.864L472.768 552.896z" /></svg>