<?xml version="1.0" standalone="no"?><!DOCTYPE svg PUBLIC "-//W3C//DTD SVG 1.1//EN" "http://www.w3.org/Graphics/SVG/1.1/DTD/svg11.dtd"><svg t="1525671937242" class="icon" style="" viewBox="0 0 1024 1024" version="1.1" xmlns="http://www.w3.org/2000/svg" p-id="1342" xmlns:xlink="http://www.w3.org/1999/xlink" width="200" height="200"><defs><style type="text/css"></style></defs><path d="M907.2 257.2c0.8 0.3 1.4 0.7 2.2 1l0.4-3.3-2.6 2.3z m-803.1-0.5c0.4-0.2 0.9-0.3 1.3-0.6l-1.7-1.4 0.4 2z m769.7 40.1c-7.1 0-13.5 2.8-18.2 7.3-0.3 0.3-0.4 0.2-0.3-0.2L679.6 462.4 536.5 175.7c-6.7-8.9-17.3-14.5-29.3-14.5-14 0-26.2 7.9-32.4 19.4L334.1 462.4 152.8 298.8c-3.8-2.1-8.2-3.3-12.9-3.3-14.5 0-26.2 11.8-26.2 26.2 0 1.2-0.2 1.8-0.6 1.8l56.1 419.1c0-1.6-0.1-3.2-0.3-4.9 3.4 29.2 23.1 53.4 49.6 63.4-2.4-0.9-4.8-1.6-7-2 56.3 21.1 166.8 34.8 294.1 33.6 127.9-1.1 239.4-16.9 296.5-39.2-2.1 0.4-4.3 1-6.7 1.9 26.5-10.1 46.2-34.3 49.6-63.5-0.4 3.4-0.4 6.6-0.2 9.5l55.7-416.9c-0.2-0.2-0.4-0.8-0.4-1.7 0-14.2-11.7-26-26.3-26z" p-id="1343"></path></svg>