<?xml version="1.0" standalone="no"?><!DOCTYPE svg PUBLIC "-//W3C//DTD SVG 1.1//EN" "http://www.w3.org/Graphics/SVG/1.1/DTD/svg11.dtd"><svg class="icon" width="200px" height="200.00px" viewBox="0 0 1024 1024" version="1.1" xmlns="http://www.w3.org/2000/svg"><path d="M1024 512C1024 229.230208 794.769792 0 512 0 229.230208 0 0 229.230208 0 512 0 794.769792 229.230208 1024 512 1024 629.410831 1024 740.826187 984.331046 830.768465 912.686662 841.557579 904.092491 843.33693 888.379234 834.742758 877.590121 826.148587 866.801009 810.43533 865.021658 799.646219 873.615827 718.470035 938.277495 618.001779 974.048781 512 974.048781 256.817504 974.048781 49.951219 767.182496 49.951219 512 49.951219 256.817504 256.817504 49.951219 512 49.951219 767.182496 49.951219 974.048781 256.817504 974.048781 512 974.048781 599.492834 949.714859 683.336764 904.470807 755.960693 897.177109 767.668243 900.755245 783.071797 912.462793 790.365493 924.170342 797.659191 939.573897 794.081058 946.867595 782.373508 997.013826 701.880796 1024 608.898379 1024 512ZM337.170731 499.512194C371.654852 499.512194 399.609756 471.557291 399.609756 437.073171 399.609756 402.58905 371.654852 374.634146 337.170731 374.634146 302.686611 374.634146 274.731708 402.58905 274.731708 437.073171 274.731708 471.557291 302.686611 499.512194 337.170731 499.512194ZM711.804879 499.512194C746.288998 499.512194 774.243902 471.557291 774.243902 437.073171 774.243902 402.58905 746.288998 374.634146 711.804879 374.634146 677.320757 374.634146 649.365854 402.58905 649.365854 437.073171 649.365854 471.557291 677.320757 499.512194 711.804879 499.512194ZM352.788105 704.784525C396.165222 670.082831 453.151987 649.360371 524.487806 649.360371 595.823622 649.360371 652.810387 670.082831 696.187505 704.784525 722.700531 725.994946 738.882517 747.570927 746.631548 763.068988 752.800254 775.406402 747.799529 790.408576 735.462114 796.577284 723.124702 802.74599 708.122526 797.745265 701.953818 785.407851 701.03616 783.572535 698.492224 779.382524 694.165854 773.614029 686.602473 763.529523 676.927317 753.345148 664.983226 743.789875 630.311565 716.052544 584.273939 699.31159 524.487806 699.31159 464.70167 699.31159 418.664045 716.052544 383.992384 743.789875 372.048292 753.345148 362.373137 763.529523 354.809756 773.614029 350.483386 779.382524 347.93945 783.572535 347.021792 785.407851 340.853084 797.745265 325.850908 802.74599 313.513495 796.577284 301.176081 790.408576 296.175356 775.406402 302.344062 763.068988 310.093092 747.570927 326.275078 725.994946 352.788105 704.784525Z" /></svg>
