<?xml version="1.0" standalone="no"?><!DOCTYPE svg PUBLIC "-//W3C//DTD SVG 1.1//EN" "http://www.w3.org/Graphics/SVG/1.1/DTD/svg11.dtd"><svg t="1525251296646" class="icon" style="" viewBox="0 0 1024 1024" version="1.1" xmlns="http://www.w3.org/2000/svg" p-id="4802" xmlns:xlink="http://www.w3.org/1999/xlink" width="200" height="200"><defs><style type="text/css"></style></defs><path d="M608 768c-17.696 0-32-14.304-32-32L576 384c0-17.696 14.304-32 32-32s32 14.304 32 32l0 352C640 753.696 625.696 768 608 768z" p-id="4803"></path><path d="M416 768c-17.696 0-32-14.304-32-32L384 384c0-17.696 14.304-32 32-32s32 14.304 32 32l0 352C448 753.696 433.696 768 416 768z" p-id="4804"></path><path d="M928 224l-160 0L768 160c0-52.928-42.72-96-95.264-96L352 64C299.072 64 256 107.072 256 160l0 64L96 224C78.304 224 64 238.304 64 256s14.304 32 32 32l832 0c17.696 0 32-14.304 32-32S945.696 224 928 224zM320 160c0-17.632 14.368-32 32-32l320.736 0C690.272 128 704 142.048 704 160l0 64L320 224 320 160z" p-id="4805"></path><path d="M736.128 960 288.064 960c-52.928 0-96-43.072-96-96L192.064 383.52c0-17.664 14.336-32 32-32s32 14.336 32 32L256.064 864c0 17.664 14.368 32 32 32l448.064 0c17.664 0 32-14.336 32-32L768.128 384.832c0-17.664 14.304-32 32-32s32 14.336 32 32L832.128 864C832.128 916.928 789.056 960 736.128 960z" p-id="4806"></path></svg>