<?xml version="1.0" standalone="no"?><!DOCTYPE svg PUBLIC "-//W3C//DTD SVG 1.1//EN" "http://www.w3.org/Graphics/SVG/1.1/DTD/svg11.dtd"><svg t="1525315660366" class="icon" style="" viewBox="0 0 1024 1024" version="1.1" xmlns="http://www.w3.org/2000/svg" p-id="40377" xmlns:xlink="http://www.w3.org/1999/xlink" width="200" height="200"><defs><style type="text/css"></style></defs><path d="M513 512.2m-496.7 0a496.7 496.7 0 1 0 993.4 0 496.7 496.7 0 1 0-993.4 0Z" fill="#AA8359" p-id="40378"></path><path d="M728.3 297c22-28.8 20.2-69.9-6.1-96.2-28.6-28.6-75.1-28.6-103.7 0s-28.6 75.1 0 103.7a73.1 73.1 0 0 0 24.6 16.2l-71 71 61.5 61.5 71-71c3.6 9 9 17.3 16.2 24.6 28.6 28.6 75.1 28.6 103.7 0 28.6-28.6 28.6-75.1 0-103.7-26.4-26.3-67.5-28.1-96.2-6.1z" fill="#FCFAFA" p-id="40379"></path><path d="M633.5 462.3c-2.4 0-4.7-1-6.4-2.7l-61.5-61.5c-3.6-3.6-3.6-9.3 0-12.9l62-62c-5.7-3.4-10.9-7.5-15.7-12.3-32.1-32.1-32.1-84.5 0-116.6 32.1-32.1 84.5-32.1 116.6 0 21.8 21.8 28.9 53.6 20.4 82 28.3-8.6 60.1-1.5 82 20.4 32.1 32.1 32.1 84.5 0 116.6-32.1 32.1-84.5 32.1-116.6 0-4.7-4.7-8.8-10-12.3-15.7l-62 62c-1.7 1.8-4 2.7-6.5 2.7z m-48.6-70.6l48.6 48.6 64.5-64.5c2.2-2.2 5.3-3.1 8.3-2.5 3 0.6 5.5 2.7 6.6 5.5 3.2 8.1 8 15.4 14.2 21.5 12.1 12.1 28.3 18.8 45.4 18.8 17.2 0 33.3-6.7 45.4-18.8 25-25 25-65.8 0-90.8-22.5-22.5-58.7-24.8-84.2-5.4-3.6 2.8-8.8 2.4-12-0.8-3.2-3.2-3.6-8.4-0.8-12 19.5-25.5 17.2-61.7-5.4-84.2-25-25-65.8-25-90.8 0s-25 65.8 0 90.8c6.2 6.2 13.4 10.9 21.5 14.2 2.8 1.1 4.9 3.6 5.5 6.6 0.6 3-0.3 6.1-2.5 8.3l-64.3 64.7z" fill="#161615" p-id="40380"></path><path d="M189.9 494.6c12.5-17.3 26.8-34.1 42.6-50 124.8-124.8 303.8-148 399.9-51.9s72.9 275.2-51.9 399.9c-11.2 11.2-22.9 21.6-34.9 31.2" fill="#FCAA6D" p-id="40381"></path><path d="M286.828599 738.328093a243.6 121.1 44.999 1 0 171.258273-171.264251 243.6 121.1 44.999 1 0-171.258273 171.264251Z" fill="#F97369" p-id="40382"></path><path d="M488.9 854.3c-17.5 0-37-3.5-58-10.6-50-16.8-103.4-51.9-150.4-98.9-47-47-82.1-100.4-98.9-150.4-17.5-52.2-13.2-94.9 12.3-120.3 25.4-25.4 68.2-29.8 120.3-12.3 50 16.8 103.4 51.9 150.4 98.9 47 47 82.1 100.4 98.9 150.4 17.5 52.2 13.2 94.9-12.3 120.3-15.2 15.2-36.5 22.9-62.3 22.9zM256.1 469.4c-20.9 0-37.8 5.9-49.4 17.6-20.3 20.3-23.1 56.4-7.9 101.6 15.9 47.4 49.5 98.3 94.5 143.3 45 45 95.9 78.6 143.3 94.5 45.2 15.2 81.3 12.4 101.6-7.9 20.3-20.3 23.1-56.4 7.9-101.6-15.9-47.4-49.5-98.3-94.5-143.3-45-45-95.9-78.6-143.3-94.5-19.2-6.5-36.8-9.7-52.2-9.7z" fill="#161615" p-id="40383"></path><path d="M347.355883 677.798696a71.4 35.5 44.999 1 0 50.203705-50.205458 71.4 35.5 44.999 1 0-50.203705 50.205458Z" fill="#FCFAFA" p-id="40384"></path><path d="M406.4 718.3c-19.1 0-43.6-12.1-65.5-34-14.5-14.5-25.3-31-30.5-46.6-6-17.7-4.1-32.6 5.1-41.9 18-18 56-7.1 88.4 25.4 14.5 14.5 25.3 31 30.5 46.6 6 17.7 4.1 32.6-5.1 41.9-5.7 5.8-13.7 8.6-22.9 8.6z m-68-112.9c-4.3 0-7.8 1.1-10 3.3-4 4-4.3 12.7-0.8 23.2 4.4 13 13.6 27 26.2 39.5 25.2 25.2 53.9 34.2 62.7 25.4 4-4 4.3-12.7 0.8-23.2-4.4-13-13.6-27-26.2-39.5-18.9-18.9-39.7-28.7-52.7-28.7z" fill="#161615" p-id="40385"></path><path d="M545.7 833c-2.7 0-5.3-1.2-7.1-3.4-3.1-3.9-2.5-9.7 1.4-12.8 11.8-9.4 23.3-19.7 34.2-30.5 52.4-52.4 89-117.3 102.9-182.6 13.6-64.1 4.8-125.2-24.8-171.9-2.7-4.3-1.4-9.9 2.8-12.6 4.3-2.7 9.9-1.4 12.6 2.8 66.7 105.2 32.8 263.8-80.6 377.2-11.3 11.3-23.3 22-35.7 31.9-1.7 1.3-3.7 1.9-5.7 1.9zM189.9 503.7c-1.9 0-3.7-0.6-5.3-1.7-4.1-3-5-8.6-2-12.7 13-17.9 27.6-35.1 43.6-51.1 112.5-112.6 271-146.4 376.8-80.4 4.3 2.7 5.6 8.3 2.9 12.6-2.7 4.3-8.3 5.6-12.6 2.9-46.9-29.3-108-37.9-172-24.4C355.8 362.7 291.1 399 239 451.1c-15.3 15.3-29.3 31.7-41.7 48.9a9.28 9.28 0 0 1-7.4 3.7z" fill="#161615" p-id="40386"></path></svg>