<?xml version="1.0" standalone="no"?><!DOCTYPE svg PUBLIC "-//W3C//DTD SVG 1.1//EN" "http://www.w3.org/Graphics/SVG/1.1/DTD/svg11.dtd"><svg t="1525240826851" class="icon" style="" viewBox="0 0 1024 1024" version="1.1" xmlns="http://www.w3.org/2000/svg" p-id="4802" xmlns:xlink="http://www.w3.org/1999/xlink" width="200" height="200"><defs><style type="text/css"></style></defs><path d="M800 960 224 960c-52.928 0-96-43.072-96-96L128 224c0-52.928 43.072-96 96-96l448 0c17.696 0 32 14.336 32 32s-14.304 32-32 32L224 192C206.368 192 192 206.368 192 224l0 640c0 17.664 14.368 32 32 32l576 0c17.664 0 32-14.336 32-32L832 352c0-17.664 14.304-32 32-32s32 14.336 32 32l0 512C896 916.928 852.928 960 800 960z" p-id="4803"></path><path d="M612 448c-8.192 0-16.384-3.136-22.624-9.376-12.512-12.512-12.512-32.736 0-45.248l318.016-318.016c12.512-12.512 32.736-12.512 45.248 0s12.512 32.736 0 45.248l-318.016 318.016C628.384 444.896 620.192 448 612 448z" p-id="4804"></path><path d="M480 448 288 448c-17.664 0-32-14.336-32-32s14.336-32 32-32l192 0c17.664 0 32 14.336 32 32S497.664 448 480 448z" p-id="4805"></path><path d="M672 640 288 640c-17.664 0-32-14.304-32-32s14.336-32 32-32l384 0c17.696 0 32 14.304 32 32S689.696 640 672 640z" p-id="4806"></path></svg>