<?xml version="1.0" standalone="no"?><!DOCTYPE svg PUBLIC "-//W3C//DTD SVG 1.1//EN" "http://www.w3.org/Graphics/SVG/1.1/DTD/svg11.dtd"><svg t="1525673365136" class="icon" style="" viewBox="0 0 1024 1024" version="1.1" xmlns="http://www.w3.org/2000/svg" p-id="4802" xmlns:xlink="http://www.w3.org/1999/xlink" width="200" height="200"><defs><style type="text/css"></style></defs><path d="M608.256 960c-17.696 0-32-14.304-32-32L576.256 448c0-7.936 2.944-15.584 8.256-21.44l208.8-234.496L230.432 192.064l209.216 234.656c5.216 5.856 8.096 13.44 8.096 21.312l0 288.768 50.848 41.152c13.76 11.136 15.872 31.264 4.736 44.992s-31.264 15.84-44.992 4.736l-62.72-50.752c-7.52-6.048-11.872-15.232-11.872-24.864l0-291.872L135.136 181.344C126.752 171.936 124.672 158.464 129.824 146.944 134.976 135.456 146.432 128.032 159.04 128.032l706.336 0c12.672 0 24.128 7.456 29.248 19.008s2.976 25.056-5.504 34.432l-248.864 278.816L640.256 928C640.256 945.696 625.952 960 608.256 960z" p-id="4803"></path></svg>