<?xml version="1.0" standalone="no"?><!DOCTYPE svg PUBLIC "-//W3C//DTD SVG 1.1//EN" "http://www.w3.org/Graphics/SVG/1.1/DTD/svg11.dtd"><svg t="1524452850901" class="icon" style="" viewBox="0 0 1024 1024" version="1.1" xmlns="http://www.w3.org/2000/svg" p-id="1653" xmlns:xlink="http://www.w3.org/1999/xlink" width="200" height="200"><defs><style type="text/css"></style></defs><path d="M703.3 457.8c-136.3 0-246.8 110.5-246.8 246.8S567 951.4 703.3 951.4s246.8-110.5 246.8-246.8-110.5-246.8-246.8-246.8z m0 351.7L598.4 704.6l104.9-104.9 104.9 104.9-104.9 104.9z" fill="#FFCB27" p-id="1654"></path><path d="M703.3 967.3c-70.2 0-136.2-27.3-185.8-77-49.6-49.6-77-115.6-77-185.8s27.3-136.2 77-185.8c49.6-49.6 115.6-77 185.8-77 70.2 0 136.2 27.3 185.8 77 49.6 49.6 77 115.6 77 185.8s-27.3 136.2-77 185.8c-49.6 49.7-115.6 77-185.8 77z m0-493.5c-127.2 0-230.8 103.5-230.8 230.8S576 935.4 703.3 935.4c127.2 0 230.8-103.5 230.8-230.8S830.6 473.8 703.3 473.8z m0 358.3L575.8 704.6 703.3 577l127.6 127.6-127.6 127.5zM621 704.6l82.3 82.3 82.3-82.3-82.3-82.3-82.3 82.3z" fill="#2D2D2D" p-id="1655"></path><path d="M864.9 518c36.7 43.1 58.9 98.9 58.9 160 0 136.3-110.5 246.8-246.8 246.8-61.8 0-118.2-22.7-161.5-60.2 45.3 53.1 112.6 86.8 187.9 86.8 136.3 0 246.8-110.5 246.8-246.8-0.1-74.5-33.1-141.3-85.3-186.6z" fill="#FFB000" p-id="1656"></path><path d="M703.3 543.3l-13.8-24.9 13.8-24.9 13.9 24.9zM690 890.5l13.9-24.8 13.9 24.8-13.9 24.9zM889.6 718.3l-24.9-13.9 24.9-13.8 24.9 13.8zM492.3 705.2l24.9-13.9 24.9 13.9-24.9 13.9z" fill="#FF9522" p-id="1657"></path><path d="M703.3 543.3l-13.8-24.9 13.8-24.9 13.9 24.9zM690 890.5l13.9-24.8 13.9 24.8-13.9 24.9zM889.6 718.3l-24.9-13.9 24.9-13.8 24.9 13.8z" fill="#FF9522" p-id="1658"></path><path d="M492.3 705.2l24.9-13.9 24.9 13.9-24.9 13.9z" fill="#FF9522" p-id="1659"></path><path d="M703.3 967.3c-70.2 0-136.2-27.3-185.8-77-49.6-49.6-77-115.6-77-185.8s27.3-136.2 77-185.8c49.6-49.6 115.6-77 185.8-77 70.2 0 136.2 27.3 185.8 77 49.6 49.6 77 115.6 77 185.8s-27.3 136.2-77 185.8c-49.6 49.7-115.6 77-185.8 77z m0-493.5c-127.2 0-230.8 103.5-230.8 230.8S576 935.4 703.3 935.4c127.2 0 230.8-103.5 230.8-230.8S830.6 473.8 703.3 473.8z m0 358.3L575.8 704.6 703.3 577l127.6 127.6-127.6 127.5zM621 704.6l82.3 82.3 82.3-82.3-82.3-82.3-82.3 82.3z" fill="#2D2D2D" p-id="1660"></path><path d="M366.7 84.6C199.2 84.6 63.3 220.4 63.3 388s135.8 303.4 303.4 303.4S670.1 555.5 670.1 388 534.2 84.6 366.7 84.6z m0 432.4l-129-129 129-129 129 129-129 129z" fill="#FFCB27" p-id="1661"></path><path d="M366.7 707.3c-85.3 0-165.5-33.2-225.8-93.5C80.6 553.5 47.3 473.3 47.3 388s33.2-165.5 93.5-225.8c60.3-60.3 140.5-93.5 225.8-93.5s165.5 33.2 225.8 93.5 93.5 140.5 93.5 225.8-33.2 165.5-93.5 225.8c-60.2 60.3-140.4 93.5-225.7 93.5z m0-606.7C208.2 100.6 79.3 229.5 79.3 388c0 158.5 128.9 287.4 287.4 287.4 158.5 0 287.4-128.9 287.4-287.4 0-158.5-129-287.4-287.4-287.4z m0 439L215.1 388l151.6-151.6L518.3 388 366.7 539.6zM260.3 388l106.4 106.4L473.1 388 366.7 281.6 260.3 388z" fill="#2D2D2D" p-id="1662"></path><path d="M565.3 158.7c45.2 53 72.4 121.6 72.4 196.7 0 167.5-135.8 303.4-303.4 303.4-75.9 0-145.4-27.9-198.6-74 55.6 65.3 138.5 106.7 231 106.7 167.5 0 303.4-135.8 303.4-303.4 0-91.7-40.6-173.8-104.8-229.4z" fill="#FFB000" p-id="1663"></path><path d="M181.8 232.4c-4 0-8.1-1.5-11.2-4.5-6.3-6.2-6.5-16.3-0.3-22.6 40.7-41.8 92.2-69.8 149-81.2 8.7-1.7 17.1 3.9 18.8 12.5 1.7 8.7-3.9 17.1-12.5 18.8-50.5 10.1-96.3 35.1-132.4 72.2-3.1 3.2-7.3 4.8-11.4 4.8z" fill="#FFFFFF" p-id="1664"></path><path d="M366.7 189.7l-17.1-30.6 17.1-30.6 17.1 30.6zM350.3 616.6l17.1-30.6 17 30.6-17 30.6zM595.7 404.9l-30.6-17.1 30.6-17 30.6 17zM107.3 388.8l30.5-17.1 30.6 17.1-30.6 17.1z" fill="#FF9522" p-id="1665"></path><path d="M366.7 189.7l-17.1-30.6 17.1-30.6 17.1 30.6zM350.3 616.6l17.1-30.6 17 30.6-17 30.6zM595.7 404.9l-30.6-17.1 30.6-17 30.6 17zM107.3 388.8l30.5-17.1 30.6 17.1-30.6 17.1z" fill="#FF9522" p-id="1666"></path><path d="M158 244.8m-10.8 0a10.8 10.8 0 1 0 21.6 0 10.8 10.8 0 1 0-21.6 0Z" fill="#FFFFFF" p-id="1667"></path><path d="M366.7 707.3c-85.3 0-165.5-33.2-225.8-93.5C80.6 553.5 47.3 473.3 47.3 388s33.2-165.5 93.5-225.8c60.3-60.3 140.5-93.5 225.8-93.5s165.5 33.2 225.8 93.5 93.5 140.5 93.5 225.8-33.2 165.5-93.5 225.8c-60.2 60.3-140.4 93.5-225.7 93.5z m0-606.7C208.2 100.6 79.3 229.5 79.3 388c0 158.5 128.9 287.4 287.4 287.4 158.5 0 287.4-128.9 287.4-287.4 0-158.5-129-287.4-287.4-287.4z m0 439L215.1 388l151.6-151.6L518.3 388 366.7 539.6zM260.3 388l106.4 106.4L473.1 388 366.7 281.6 260.3 388z" fill="#2D2D2D" p-id="1668"></path></svg>