<?xml version="1.0" standalone="no"?><!DOCTYPE svg PUBLIC "-//W3C//DTD SVG 1.1//EN" "http://www.w3.org/Graphics/SVG/1.1/DTD/svg11.dtd"><svg t="1524450891772" class="icon" style="" viewBox="0 0 1024 1024" version="1.1" xmlns="http://www.w3.org/2000/svg" p-id="5438" xmlns:xlink="http://www.w3.org/1999/xlink" width="200" height="200"><defs><style type="text/css"></style></defs><path d="M700.8 976H307.2c-36.8 0-67.2-30.4-67.2-67.2V147.2C240 110.4 270.4 80 307.2 80h393.6C737.6 80 768 110.4 768 147.2v761.6c0 36.8-30.4 67.2-67.2 67.2zM307.2 112C288 112 272 128 272 147.2v761.6c0 19.2 16 35.2 35.2 35.2h393.6c19.2 0 35.2-16 35.2-35.2V147.2C736 128 720 112 700.8 112H307.2z" fill="" p-id="5439"></path><path d="M752 240H272c-9.6 0-16-6.4-16-16s6.4-16 16-16h480c9.6 0 16 6.4 16 16s-6.4 16-16 16zM752 848H272c-9.6 0-16-6.4-16-16s6.4-16 16-16h480c9.6 0 16 6.4 16 16s-6.4 16-16 16zM544 912h-64c-9.6 0-16-6.4-16-16s6.4-16 16-16h64c9.6 0 16 6.4 16 16s-6.4 16-16 16zM480 144h128v32h-128zM416 144h32v32h-32z" fill="" p-id="5440"></path></svg>