<?xml version="1.0" standalone="no"?><!DOCTYPE svg PUBLIC "-//W3C//DTD SVG 1.1//EN" "http://www.w3.org/Graphics/SVG/1.1/DTD/svg11.dtd"><svg t="1524022111486" class="icon" style="" viewBox="0 0 1024 1024" version="1.1" xmlns="http://www.w3.org/2000/svg" p-id="5087" xmlns:xlink="http://www.w3.org/1999/xlink" width="200" height="200"><defs><style type="text/css"></style></defs><path d="M512 608c-105.888 0-192-86.112-192-192s86.112-192 192-192 192 86.112 192 192S617.888 608 512 608zM512 288c-70.592 0-128 57.408-128 128s57.408 128 128 128c70.592 0 128-57.408 128-128S582.592 288 512 288z" p-id="5088"></path><path d="M512 960c-7.936 0-15.904-2.944-22.08-8.832-12.768-12.224-13.248-32.48-1.056-45.248C575.392 815.2 800 550.336 800 416c0-158.784-129.184-288-288-288-158.784 0-288 129.216-288 288 0 75.616 72.544 206.08 204.256 367.424 11.2 13.728 9.152 33.888-4.544 45.024-13.696 11.168-33.888 9.152-45.024-4.544C233.568 646.176 160 508.928 160 416 160 221.92 317.92 64 512 64s352 157.92 352 352c0 187.36-315.424 520.032-328.832 534.08C528.864 956.672 520.448 960 512 960z" p-id="5089"></path></svg>