<?xml version="1.0" standalone="no"?><!DOCTYPE svg PUBLIC "-//W3C//DTD SVG 1.1//EN" "http://www.w3.org/Graphics/SVG/1.1/DTD/svg11.dtd"><svg t="1525401491516" class="icon" style="" viewBox="0 0 1024 1024" version="1.1" xmlns="http://www.w3.org/2000/svg" p-id="7216" xmlns:xlink="http://www.w3.org/1999/xlink" width="200" height="200"><defs><style type="text/css"></style></defs><path d="M0.021489 0 0.021489 1023.63775l1023.682775-1023.63775L0.021489 0zM301.220413 592.096223c-10.136871-3.37998-19.48068-5.565762-33.990139-8.546653l-128.60503-26.042119c-9.741875-2.186805-23.257703-5.762237-37.371142-10.337439 2.982938 2.587941 2.982938 2.587941 10.934027 9.345856 3.974521 3.577478 13.31833 12.124132 17.888416 16.696264l65.197908 65.195861c13.317307 13.3214 23.25668 22.063505 31.405267 28.226878l-29.020964 29.017894c-5.564739-7.550976-14.906501-18.085914-28.424376-31.602765l-102.567004-102.568027c-10.334369-10.333346-17.886369-17.092283-27.230178-24.047696l31.009248-31.010271c6.757914 3.179412 16.300244 5.564739 33.194006 8.943696l126.021182 25.441439c11.927657 2.384303 28.624944 6.363941 40.949644 9.939373-8.547677-6.955412-21.070898-18.285458-29.420053-26.634614l-66.788126-66.787102c-11.727089-11.728112-20.273742-19.48068-29.018917-25.838482l29.020964-29.02301c6.757914 9.144264 13.71435 16.896832 25.838482 29.01994l105.151875 105.150852c11.130502 11.132548 19.081591 18.285458 27.230178 24.049742L301.220413 592.096223zM448.111924 445.204711l-62.019519 62.017472c-11.924587 11.92561-17.092283 17.492396-24.645306 25.841551-6.758937-9.145287-12.921287-16.1007-24.647353-27.827789l-107.537202-107.536178c-10.338463-10.338463-16.697287-15.902178-27.232225-24.051789 8.349155-7.552 13.715373-12.521175 25.841551-24.648376l60.029188-60.028165c9.939373-9.93835 16.1007-16.895809 24.25031-27.03268l26.237571 26.236548c-8.5487 6.559393-15.303544 12.523221-27.031657 24.251334l-57.246819 57.246819 40.946574 40.946574 48.303122-48.300053c10.335393-10.336416 16.696264-17.494443 24.447808-27.234271l26.040073 26.041096c-9.343809 6.956436-14.907525 12.124132-27.231201 24.448832l-48.50369 48.499597 46.911426 46.911426 59.632145-59.631122c11.130502-11.132548 16.499789-17.292851 24.051789-26.835182l26.436092 26.437116C466.99397 427.117774 460.236056 433.079556 448.111924 445.204711zM594.999342 258.162758l-95.209432-52.673663c-9.939373-5.565762-19.280112-11.329023-31.207769-19.677155 9.143241 13.516852 14.907525 23.255657 19.48068 31.404244l52.871161 95.010911c6.560416 11.332093 11.332093 19.284205 15.504112 24.650423l-26.436092 26.436092c-5.963829-3.974521-5.963829-3.974521-25.840528-15.106046l-145.70243-82.491783c-14.906501-8.148587-23.056112-12.323677-31.601742-15.700587l31.80231-31.80538c7.15598 6.360871 14.113439 11.330046 25.045419 17.889439l94.219895 57.246819c7.553023 4.770653 19.875676 12.721743 28.025287 18.485003-9.741875-14.907525-13.913894-21.866007-17.887392-29.021987l-54.663994-98.788957c-5.962805-10.734482-11.131525-18.685571-15.900132-24.647353l24.447808-24.447808c5.366218 4.170996 14.907525 10.134825 24.449855 15.303544l98.787934 54.260811c6.560416 3.780093 11.529591 6.762007 29.618575 18.49012-3.577478-5.565762-3.577478-5.565762-9.341762-13.71435-2.585895-3.778046-8.747221-13.118785-10.136871-15.306614l-56.453756-93.423763c-5.565762-9.54233-12.523221-18.884093-17.887392-24.64633l31.804357-31.803333c3.973498 9.538237 7.552 16.695241 15.901155 31.403221l82.092693 145.70243c4.175089 6.955412 6.758937 11.530614 8.149611 13.71435 3.976568 7.157004 3.976568 7.157004 7.552 11.92561l-26.635637 26.635637C614.282524 269.493827 603.747587 262.933411 594.999342 258.162758z" p-id="7217"></path></svg>