<?xml version="1.0" standalone="no"?><!DOCTYPE svg PUBLIC "-//W3C//DTD SVG 1.1//EN" "http://www.w3.org/Graphics/SVG/1.1/DTD/svg11.dtd"><svg t="1524454760609" class="icon" style="" viewBox="0 0 1024 1024" version="1.1" xmlns="http://www.w3.org/2000/svg" p-id="7954" xmlns:xlink="http://www.w3.org/1999/xlink" width="200" height="200"><defs><style type="text/css"></style></defs><path d="M512 512m-512 0a512 512 0 1 0 1024 0 512 512 0 1 0-1024 0Z" fill="#3AD0F9" p-id="7955"></path><path d="M512 124c-19.2 0-35.2 21.6-35.2 48v851.2c11.2 0.8 23.2 0.8 35.2 0.8 12 0 24-0.8 35.2-1.6V172c0.8-26.4-15.2-48-35.2-48z" fill="#AD5114" p-id="7956"></path><path d="M476.8 208.8h73.6v256h-73.6zM476.8 488h73.6v256h-73.6z" fill="#993F0D" p-id="7957"></path><path d="M512 112c-24 0-48 25.6-48 56v853.6c5.6 0.8 10.4 0.8 16 1.6V168c0-21.6 17.6-40 32-40 15.2 0 24 18.4 24 40v855.2c5.6 0 10.4-0.8 16-1.6V168c0-30.4-16-56-40-56z" fill="#663210" p-id="7958"></path><path d="M807.2 410.4c-19.2 17.6-56.8 32.8-83.2 32.8H249.6c-26.4 0-48-21.6-48-48V285.6c0-26.4 21.6-48 48-48h473.6c26.4 0 64 14.4 84 32l41.6 37.6c20 17.6 20 46.4 0 64.8l-41.6 38.4z" fill="#EAEAEA" p-id="7959"></path><path d="M849.6 339.2l-42.4 39.2c-19.2 17.6-56.8 29.6-83.2 29.6H249.6c-26.4 0-48-19.2-48-45.6V400c0 26.4 21.6 48 48 48h473.6c26.4 0 64-14.4 83.2-32.8l42.4-39.2c15.2-13.6 18.4-34.4 10.4-50.4-1.6 4.8-4.8 9.6-9.6 13.6z" fill="#D4D6D6" p-id="7960"></path><path d="M724 456H248c-31.2 0-56-24.8-56-56V288c0-31.2 24.8-56 56-56h476c28 0 68 15.2 89.6 33.6l40.8 36c11.2 9.6 17.6 23.2 18.4 37.6 0 14.4-5.6 28-16 38.4l-44 42.4C792 440 752 456 724 456zM248 248c-22.4 0-40 17.6-40 40v112c0 22.4 17.6 40 40 40h476c24 0 59.2-14.4 76.8-31.2l44-42.4c7.2-7.2 11.2-16.8 11.2-27.2 0-10.4-4.8-19.2-12.8-26.4l-40.8-36c-18.4-16-54.4-29.6-79.2-29.6H248z" fill="#663210" p-id="7961"></path><path d="M728 344H624c-8.8 0-16-7.2-16-16s7.2-16 16-16h104c8.8 0 16 7.2 16 16s-7.2 16-16 16zM568 344H296c-8.8 0-16-7.2-16-16s7.2-16 16-16h272c8.8 0 16 7.2 16 16s-7.2 16-16 16z" fill="#ADADAD" p-id="7962"></path><path d="M216 687.2c19.2 17.6 56.8 32.8 83.2 32.8h473.6c26.4 0 48-21.6 48-48V562.4c0-26.4-21.6-48-48-48H299.2c-26.4 0-64 14.4-84 32L173.6 584c-20 17.6-20 46.4 0 64.8l42.4 38.4z" fill="#EAEAEA" p-id="7963"></path><path d="M173.6 610.4l42.4 39.2c19.2 17.6 56.8 30.4 83.2 30.4h473.6c26.4 0 48-19.2 48-45.6V672c0 26.4-21.6 48-48 48H299.2c-26.4 0-64-14.4-83.2-32.8L173.6 648c-15.2-13.6-18.4-34.4-10.4-50.4 2.4 4.8 5.6 8.8 10.4 12.8z" fill="#D4D6D6" p-id="7964"></path><path d="M776 728H299.2c-28 0-68-15.2-88.8-34.4L168 654.4c-11.2-10.4-16.8-24-16.8-38.4 0-14.4 6.4-28 17.6-38.4l42.4-39.2C232 519.2 272 504 300 504H776c31.2 0 56 24.8 56 56v112c0 31.2-24.8 56-56 56zM299.2 520c-24 0-60 13.6-78.4 30.4l-42.4 39.2c-8 7.2-12 16.8-12 26.4 0 10.4 4 19.2 12 26.4l42.4 39.2c17.6 16.8 53.6 30.4 77.6 30.4H776c22.4 0 40-17.6 40-40V560c0-22.4-17.6-40-40-40H299.2z" fill="#663210" p-id="7965"></path><path d="M408 624H296c-8.8 0-16-7.2-16-16s7.2-16 16-16h112c8.8 0 16 7.2 16 16s-7.2 16-16 16zM608 624H456c-8.8 0-16-7.2-16-16s7.2-16 16-16h152c8.8 0 16 7.2 16 16s-7.2 16-16 16zM736.8 624h-73.6c-8.8 0-15.2-7.2-15.2-16s7.2-16 15.2-16h73.6c8.8 0 15.2 7.2 15.2 16s-7.2 16-15.2 16z" fill="#ADADAD" p-id="7966"></path><path d="M692 280H264c-4.8 0-8-3.2-8-8s3.2-8 8-8h428c4.8 0 8 3.2 8 8s-3.2 8-8 8zM772 552H344c-4.8 0-8-3.2-8-8s3.2-8 8-8h428c4.8 0 8 3.2 8 8s-3.2 8-8 8z" fill="#FFFFFF" p-id="7967"></path><path d="M520 990.4c-4.8 0-8-3.2-8-8V768c0-4.8 3.2-8 8-8s8 3.2 8 8v214.4c0 4-3.2 8-8 8zM520 196c-4.8 0-8-3.2-8-8v-20.8c0-4.8 3.2-8 8-8s8 3.2 8 8v20.8c0 4.8-3.2 8-8 8z" fill="#FFFFFF" p-id="7968"></path><path d="M696 848c-17.6 0-32-14.4-32-32s14.4-32 32-32 32 14.4 32 32-14.4 32-32 32z m0-48.8c-9.6 0-16.8 8-16.8 16.8 0 9.6 8 16.8 16.8 16.8 9.6 0 16.8-8 16.8-16.8 0-9.6-7.2-16.8-16.8-16.8zM672 184c-17.6 0-32-14.4-32-32s14.4-32 32-32 32 14.4 32 32-14.4 32-32 32z m0-48.8c-9.6 0-16.8 8-16.8 16.8 0 9.6 8 16.8 16.8 16.8 9.6 0 16.8-8 16.8-16.8 0-9.6-7.2-16.8-16.8-16.8zM112 520c-17.6 0-32-14.4-32-32s14.4-32 32-32 32 14.4 32 32-14.4 32-32 32z m0-48.8c-9.6 0-16.8 8-16.8 16.8 0 9.6 8 16.8 16.8 16.8 9.6 0 16.8-8 16.8-16.8 0-9.6-7.2-16.8-16.8-16.8zM390.4 870.4c0-3.2-3.2-6.4-8-7.2l-15.2-2.4c-4-0.8-8.8-4.8-8.8-8.8l-2.4-15.2c-0.8-4-4-8-7.2-8s-6.4 3.2-7.2 8l-2.4 15.2c-0.8 4-4.8 8.8-8.8 8.8l-15.2 2.4c-4 0.8-8 4-8 7.2s3.2 6.4 8 7.2l15.2 2.4c4 0.8 8.8 4.8 8.8 8.8l2.4 15.2c0.8 4 4 8 7.2 8s6.4-3.2 6.4-8l2.4-16.8c0.8-4 4.8-8 8.8-8.8l14.4-0.8c5.6-0.8 9.6-4 9.6-7.2zM963.2 556c0-3.2-3.2-6.4-8-7.2l-15.2-2.4c-4-0.8-8.8-4.8-8.8-8.8l-2.4-15.2c-0.8-4-4-8-7.2-8s-6.4 3.2-7.2 8l-2.4 15.2c-0.8 4-4.8 8.8-8.8 8.8l-15.2 2.4c-4 0.8-8 4-8 7.2s3.2 6.4 8 7.2l15.2 2.4c4 0.8 8.8 4.8 8.8 8.8l2.4 15.2c0.8 4 4 8 7.2 8s6.4-3.2 6.4-8l2.4-16.8c0.8-4 4.8-8 8.8-8.8l14.4-0.8c6.4-1.6 9.6-4 9.6-7.2zM384.8 143.2c0-3.2-3.2-6.4-8-7.2l-15.2-2.4c-4-0.8-8.8-4.8-8.8-8.8l-2.4-15.2c-0.8-4-4-8-7.2-8s-6.4 3.2-7.2 8l-2.4 15.2c-0.8 4-4.8 8.8-8.8 8.8l-15.2 2.4c-4 0.8-8 4-8 7.2s3.2 6.4 8 7.2l15.2 2.4c4 0.8 8.8 4.8 8.8 8.8l2.4 15.2c0.8 4 4 8 7.2 8s6.4-3.2 6.4-8L352 160c0.8-4 4.8-8 8.8-8.8l14.4-0.8c6.4-0.8 9.6-4 9.6-7.2z" fill="#FFFFFF" p-id="7969"></path></svg>