<?xml version="1.0" standalone="no"?><!DOCTYPE svg PUBLIC "-//W3C//DTD SVG 1.1//EN" "http://www.w3.org/Graphics/SVG/1.1/DTD/svg11.dtd"><svg t="1524452841545" class="icon" style="" viewBox="0 0 1024 1024" version="1.1" xmlns="http://www.w3.org/2000/svg" p-id="1343" xmlns:xlink="http://www.w3.org/1999/xlink" width="200" height="200"><defs><style type="text/css"></style></defs><path d="M875.1 621.4c0 24.6-2.5 48.6-7.4 71.8-4.8 23.2-11.9 45.6-21.1 66.9-75.9 202.3-292.1 173-483.2 166.8-83.3-2.7-145.9-81.1-184.1-166.8-9.4-21.2-16.3-43.7-21.1-66.9-4.8-23.2-7.4-47.2-7.4-71.8 0-196.9 162.1-356.5 362.1-356.5s362.2 159.6 362.2 356.5z" fill="#F84A63" p-id="1344"></path><path d="M521.1 947.9c-35.5 0-71.5-1.5-107-3.1-16.9-0.7-34.3-1.5-51.2-2-42.8-1.4-83.1-20.6-119.7-56.9-29.7-29.5-56.8-70.8-78.4-119.3-9.4-21.1-16.9-44.7-22.1-70.1-5.1-24.6-7.7-49.8-7.7-75.1 0-50.3 10-99.1 29.8-145.1 19.1-44.4 46.3-84.2 81.1-118.4 34.7-34.2 75.1-61 120.2-79.8 46.6-19.4 96.1-29.2 147.1-29.2s100.5 9.8 147.1 29.2c45 18.7 85.4 45.6 120.2 79.8 34.7 34.2 62 74 81.1 118.4 19.7 46 29.8 94.8 29.8 145.1 0 25.3-2.6 50.5-7.7 75.1-5 23.8-12.3 47.3-21.9 69.6-33 87.6-93.9 141.8-186.3 165.9-48.2 12.4-100.7 15.9-154.4 15.9z m-8.1-667c-190.8 0-346.1 152.7-346.1 340.5 0 23.1 2.4 46.2 7 68.6 4.8 23.2 11.6 44.6 20 63.6 20.6 46.3 78.5 154.3 170 157.3 17 0.6 34.5 1.3 51.5 2 86.9 3.7 176.8 7.6 251.6-11.9 82.8-21.6 135.1-68.1 164.6-146.5l0.3-0.7c8.8-20.5 15.6-42 20.1-63.8 4.7-22.4 7-45.5 7-68.6 0.1-187.8-155.2-340.5-346-340.5z" fill="#2D2D2D" p-id="1345"></path><path d="M541.5 266c151.6 42.6 262.6 179.9 262.6 342.8 0 24.6-2.5 48.6-7.4 71.8-4.8 23.2-11.9 45.6-21.1 66.9C702.3 943 498.1 922.3 312 915c16.1 7.1 33.3 11.2 51.4 11.8C554.5 933 770.6 962.3 846.6 760c9.2-21.3 16.3-43.7 21.1-66.9 4.8-23.2 7.4-47.2 7.4-71.8 0-187.4-146.9-341-333.6-355.3z" fill="#ED2B50" p-id="1346"></path><path d="M521.1 947.9c-35.5 0-71.5-1.5-107-3.1-16.9-0.7-34.3-1.5-51.2-2-42.8-1.4-83.1-20.6-119.7-56.9-29.7-29.5-56.8-70.8-78.4-119.3-9.4-21.1-16.9-44.7-22.1-70.1-5.1-24.6-7.7-49.8-7.7-75.1 0-50.3 10-99.1 29.8-145.1 19.1-44.4 46.3-84.2 81.1-118.4 34.7-34.2 75.1-61 120.2-79.8 46.6-19.4 96.1-29.2 147.1-29.2s100.5 9.8 147.1 29.2c45 18.7 85.4 45.6 120.2 79.8 34.7 34.2 62 74 81.1 118.4 19.7 46 29.8 94.8 29.8 145.1 0 25.3-2.6 50.5-7.7 75.1-5 23.8-12.3 47.3-21.9 69.6-33 87.6-93.9 141.8-186.3 165.9-48.2 12.4-100.7 15.9-154.4 15.9z m-8.1-667c-190.8 0-346.1 152.7-346.1 340.5 0 23.1 2.4 46.2 7 68.6 4.8 23.2 11.6 44.6 20 63.6 20.6 46.3 78.5 154.3 170 157.3 17 0.6 34.5 1.3 51.5 2 86.9 3.7 176.8 7.6 251.6-11.9 82.8-21.6 135.1-68.1 164.6-146.5l0.3-0.7c8.8-20.5 15.6-42 20.1-63.8 4.7-22.4 7-45.5 7-68.6 0.1-187.8-155.2-340.5-346-340.5z" fill="#2D2D2D" p-id="1347"></path><path d="M224.5 213.7C245 279.1 278 329.4 324 369.1s396.3 6.7 396.3 6.7S822.7 266 805 195.2s-596.5-32.6-580.5 18.5z" fill="#F84A63" p-id="1348"></path><path d="M469.9 404.7c-114.2 0-144.1-12.9-156.3-23.5-49.2-42.4-83.3-95.6-104.3-162.7-2.6-8.4-0.3-17.3 6.4-24.3 7.4-7.7 24.9-19.4 91.3-31.3 42.1-7.6 97.5-13.9 155.9-17.9 102.9-7 237.5-7.9 306.9 10.5 19.2 5.1 45.4 14.4 50.7 35.7 8.4 33.8-4.3 77.4-37.8 129.4-23.9 37.1-49.6 64.9-50.7 66l-4.1 4.5-6.1 0.6c-0.9 0.1-89.1 8.3-181.8 11.6-26.4 1-49.6 1.4-70.1 1.4zM241.5 214.3c19.3 58.7 49.8 105.4 93 142.7 2.8 2.4 16.1 10.4 71.9 13.9 34.3 2.2 78.8 2.3 132.5 0.4 77.8-2.7 152.4-9 173.8-10.9 28.9-32.4 88.8-112.6 76.8-161.2-0.6-1-8.9-12.3-66.5-20-69-9.2-180.3-9.2-290.4 0.2-51.6 4.4-97.5 10.4-132.6 17.3-38.4 7.7-53.2 14.4-58.5 17.6z m548.1-15z" fill="#2D2D2D" p-id="1349"></path><path d="M789.4 191.3c-7.5-30-115.4-40.4-236.2-38.6 98.9 1.6 179.1 12.9 185.5 38.6C756.4 262.1 654 372 654 372s-116.5 11-223.9 12.6c117.6 2.1 274.6-12.6 274.6-12.6s102.4-109.9 84.7-180.7z" fill="#ED2B50" p-id="1350"></path><path d="M752.6 175c0 2.4-0.1 4.8-0.2 7.2 0.1-1.7 0.2-3.4 0.2-5.2 0.1-0.7 0.1-1.4 0-2z" fill="#ED2B50" p-id="1351"></path><path d="M768.4 183.6l-31.9-2c0.1-2.2 0.2-4.5 0.2-6.8l32-0.4v2.6c0 2.2-0.1 4.3-0.3 6.6z" fill="#2D2D2D" p-id="1352"></path><path d="M668.1 134.7c-29 0-55.9 4.1-78 11-22.1-7-49-11-78-11s-55.9 4.1-78 11c-22.1-7-49-11-78-11-75.6 0-136.9 27.8-136.9 62s61.3 62 136.9 62c29 0 55.9-4.1 78-11 22.1 7 49 11 78 11s55.9-4.1 78-11c22.1 7 49 11 78 11 72.7 0 132.2-25.7 136.6-58.1 0.1-1.8 0.2-3.7 0.2-5.5-1.7-33.5-62.3-60.4-136.8-60.4z" fill="#ED2B50" p-id="1353"></path><path d="M668.1 274.8c-27.7 0-54.6-3.6-78-10.3-23.4 6.8-50.2 10.3-78 10.3-27.7 0-54.6-3.6-78-10.3-23.4 6.8-50.2 10.3-78 10.3-87.2 0-152.9-33.5-152.9-78s65.7-78 152.9-78c27.7 0 54.6 3.6 78 10.3 23.4-6.8 50.2-10.3 78-10.3s54.6 3.6 78 10.3c23.4-6.8 50.2-10.3 78-10.3 38.1 0 74.4 6.8 102.1 19 31.5 13.9 49.5 34 50.7 56.5v1.2c0 2.1-0.1 4.2-0.3 6.3l-0.1 1.1c-5.6 41.6-69.7 71.9-152.4 71.9z m-77.9-43.9l4.8 1.5c21.4 6.7 46.7 10.3 73.2 10.3 73.2 0 117.5-25.7 120.7-43.8 0.1-1.1 0.1-2.2 0.1-3.4-1.8-18.9-48.1-44.8-120.8-44.8-26.4 0-51.7 3.6-73.2 10.3l-4.8 1.5-4.8-1.5c-21.4-6.7-46.7-10.3-73.2-10.3s-51.7 3.6-73.2 10.3l-4.8 1.5-4.8-1.5c-21.4-6.7-46.7-10.3-73.2-10.3-34.3 0-66.4 5.9-90.2 16.7-18.9 8.6-30.7 19.8-30.7 29.3s11.8 20.7 30.7 29.3c23.8 10.8 55.9 16.7 90.2 16.7 26.4 0 51.7-3.6 73.2-10.3l4.8-1.5 4.8 1.5c21.4 6.7 46.7 10.3 73.2 10.3 26.4 0 51.7-3.6 73.2-10.3l4.8-1.5z" fill="#2D2D2D" p-id="1354"></path><path d="M352.1 84.2c-60.1 0-108.9 48.7-108.9 108.9S292 301.9 352.1 301.9 461 253.2 461 193 412.2 84.2 352.1 84.2z m0 155.2l-46.3-46.3 46.3-46.3 46.3 46.3-46.3 46.3z" fill="#FFCB27" p-id="1355"></path><path d="M352.1 307.7c-30.6 0-59.4-11.9-81-33.6-21.6-21.6-33.6-50.4-33.6-81s11.9-59.4 33.6-81c21.6-21.6 50.4-33.6 81-33.6s59.4 11.9 81 33.6c21.6 21.6 33.6 50.4 33.6 81s-11.9 59.4-33.6 81c-21.6 21.7-50.4 33.6-81 33.6z m0-217.7C295.2 90 249 136.2 249 193.1c0 56.9 46.3 103.1 103.1 103.1s103.1-46.3 103.1-103.1c0-56.9-46.3-103.1-103.1-103.1z m0 157.5l-54.4-54.4 54.4-54.4 54.4 54.4-54.4 54.4z m-38.2-54.4l38.2 38.2 38.2-38.2-38.2-38.2-38.2 38.2z" fill="#2D2D2D" p-id="1356"></path><path d="M423.3 110.8c16.2 19 26 43.6 26 70.6 0 60.1-48.7 108.9-108.9 108.9-27.3 0-52.2-10-71.3-26.6 20 23.4 49.7 38.3 82.9 38.3 60.1 0 108.9-48.7 108.9-108.9 0-32.9-14.5-62.3-37.6-82.3z" fill="#FFB000" p-id="1357"></path><path d="M289.1 137.3c-1.4 0-2.9-0.5-4-1.6-2.3-2.2-2.3-5.8-0.1-8.1 14.6-15 33.1-25.1 53.5-29.1 3.1-0.6 6.1 1.4 6.8 4.5 0.6 3.1-1.4 6.1-4.5 6.8-18.1 3.6-34.5 12.6-47.5 25.9-1.3 1-2.7 1.6-4.2 1.6z" fill="#FFFFFF" p-id="1358"></path><path d="M352.1 121.9l-6.2-10.9 6.2-11 6.1 11zM346.2 275.1l6.1-10.9 6.1 10.9-6.1 11zM434.2 199.2l-10.9-6.2 10.9-6.1 11 6.1zM259 193.4l11-6.1 10.9 6.1-10.9 6.1z" fill="#FF9522" p-id="1359"></path><path d="M352.1 121.9l-6.2-10.9 6.2-11 6.1 11zM346.2 275.1l6.1-10.9 6.1 10.9-6.1 11zM434.2 199.2l-10.9-6.2 10.9-6.1 11 6.1zM259 193.4l11-6.1 10.9 6.1-10.9 6.1z" fill="#FF9522" p-id="1360"></path><path d="M280.5 141.7m-3.9 0a3.9 3.9 0 1 0 7.8 0 3.9 3.9 0 1 0-7.8 0Z" fill="#FFFFFF" p-id="1361"></path><path d="M352.1 307.7c-30.6 0-59.4-11.9-81-33.6-21.6-21.6-33.6-50.4-33.6-81s11.9-59.4 33.6-81c21.6-21.6 50.4-33.6 81-33.6s59.4 11.9 81 33.6c21.6 21.6 33.6 50.4 33.6 81s-11.9 59.4-33.6 81c-21.6 21.7-50.4 33.6-81 33.6z m0-217.7C295.2 90 249 136.2 249 193.1c0 56.9 46.3 103.1 103.1 103.1s103.1-46.3 103.1-103.1c0-56.9-46.3-103.1-103.1-103.1z m0 157.5l-54.4-54.4 54.4-54.4 54.4 54.4-54.4 54.4z m-38.2-54.4l38.2 38.2 38.2-38.2-38.2-38.2-38.2 38.2z" fill="#2D2D2D" p-id="1362"></path><path d="M426 179.4c-42.5 42.5-42.5 111.4 0 153.9s111.4 42.5 153.9 0 42.5-111.4 0-153.9-111.4-42.5-153.9 0z m109.7 109.7h-65.5v-65.5h65.5v65.5z" fill="#FFCB27" p-id="1363"></path><path d="M584 337.4C562.4 359 533.6 371 503 371s-59.4-11.9-81-33.6c-21.6-21.6-33.6-50.4-33.6-81s11.9-59.4 33.6-81c21.6-21.6 50.4-33.6 81-33.6s59.4 11.9 81 33.6c21.6 21.6 33.6 50.4 33.6 81s-11.9 59.4-33.6 81zM430.1 183.5c-40.2 40.2-40.2 105.6 0 145.8 40.2 40.2 105.6 40.2 145.8 0s40.2-105.6 0-145.8c-40.2-40.2-105.6-40.2-145.8 0z m111.4 111.3h-76.9v-76.9h76.9v76.9zM476 283.4h54v-54h-54v54z" fill="#2D2D2D" p-id="1364"></path><path d="M495.2 147.8c24.9 2 49.2 12.5 68.3 31.5 42.5 42.5 42.5 111.4 0 153.9-19.3 19.3-44 29.8-69.2 31.6 30.7 2.4 62.2-8.1 85.7-31.5 42.5-42.5 42.5-111.4 0-153.9-23.3-23.2-54.4-33.8-84.8-31.6z" fill="#FFB000" p-id="1365"></path><path d="M419 261.5c-1 1-2.4 1.7-4 1.7-3.2 0-5.8-2.5-5.8-5.7-0.3-20.9 5.7-41.1 17.2-58.4 1.8-2.6 5.3-3.4 8-1.6 2.6 1.8 3.4 5.3 1.6 8-10.2 15.4-15.5 33.3-15.3 51.9 0 1.5-0.7 3-1.7 4.1z" fill="#FFFFFF" p-id="1366"></path><path d="M452.7 206.1l-12.1-3.5-3.4-12.1 12.1 3.5zM556.8 318.5l-3.4-12.1 12.1 3.5 3.4 12.1zM565.4 202.6l-12.1 3.4 3.4-12.1 12.1-3.4zM437.4 322.4l3.4-12.1 12.1-3.4-3.4 12.1z" fill="#FF9522" p-id="1367"></path><path d="M452.7 206.1l-12.1-3.5-3.4-12.1 12.1 3.5zM556.8 318.5l-3.4-12.1 12.1 3.5 3.4 12.1zM565.4 202.6l-12.1 3.4 3.4-12.1 12.1-3.4zM437.4 322.4l3.4-12.1 12.1-3.4-3.4 12.1z" fill="#FF9522" p-id="1368"></path><path d="M413.301896 273.352146a3.9 3.9 0 1 0 5.515336-5.515529 3.9 3.9 0 1 0-5.515336 5.515529Z" fill="#FFFFFF" p-id="1369"></path><path d="M584 337.4C562.4 359 533.6 371 503 371s-59.4-11.9-81-33.6c-21.6-21.6-33.6-50.4-33.6-81s11.9-59.4 33.6-81c21.6-21.6 50.4-33.6 81-33.6s59.4 11.9 81 33.6c21.6 21.6 33.6 50.4 33.6 81s-11.9 59.4-33.6 81zM430.1 183.5c-40.2 40.2-40.2 105.6 0 145.8 40.2 40.2 105.6 40.2 145.8 0s40.2-105.6 0-145.8c-40.2-40.2-105.6-40.2-145.8 0z m111.4 111.3h-76.9v-76.9h76.9v76.9zM476 283.4h54v-54h-54v54z" fill="#2D2D2D" p-id="1370"></path><path d="M678.7 113.2C618.6 112.1 569 160 567.9 220.1s46.8 109.7 106.9 110.8c60.1 1.1 109.7-46.8 110.8-106.9s-46.8-109.7-106.9-110.8z m-2.8 155.1l-45.4-47.1 47.1-45.4 45.4 47.1-47.1 45.4z" fill="#FFCB27" p-id="1371"></path><path d="M674.7 336.6c-30.6-0.6-59.2-13-80.4-35-21.3-22-32.7-51-32.1-81.6s13-59.2 35-80.4c22-21.3 51-32.7 81.6-32.1 30.6 0.6 59.2 13 80.4 35 21.3 22 32.7 51 32.1 81.6-0.6 30.6-13 59.2-35 80.4-22 21.2-51 32.6-81.6 32.1z m3.9-217.7c-56.8-1-103.9 44.4-104.9 101.2-1 56.8 44.4 103.9 101.2 104.9s103.9-44.4 104.9-101.2c1.1-56.8-44.3-103.9-101.2-104.9z m-2.8 157.5L622.4 221l55.4-53.4 53.4 55.4-55.4 53.4z m-37.2-55.1l37.5 38.8 38.8-37.5-37.5-38.8-38.8 37.5z" fill="#2D2D2D" p-id="1372"></path><path d="M749.5 141c15.9 19.3 25.2 44.1 24.7 71-1.1 60.1-50.7 108-110.8 106.9-27.2-0.5-52-11-70.8-27.8 19.5 23.8 49 39.2 82.2 39.8 60.1 1.1 109.7-46.8 110.8-106.9 0.6-32.9-13.4-62.6-36.1-83z" fill="#FFB000" p-id="1373"></path><path d="M614.8 165.1c-1.4 0-2.9-0.6-4-1.7-2.2-2.3-2.2-5.9 0-8.1 14.9-14.7 33.5-24.5 54-28.2 3.1-0.6 6.1 1.5 6.7 4.6 0.6 3.1-1.5 6.1-4.6 6.7-18.2 3.3-34.8 12-48 25-1.1 1.1-2.6 1.7-4.1 1.7z" fill="#FFFFFF" p-id="1374"></path><path d="M678.1 150.9l-6-11.1 6.3-10.9 6 11.1zM669.4 303.9l6.3-10.8 6 11-6.4 10.9zM758.8 229.6l-10.8-6.4 11-5.9 10.9 6.3zM583.7 220.6l11.1-5.9 10.8 6.3-11 6z" fill="#FF9522" p-id="1375"></path><path d="M678.1 150.9l-6-11.1 6.3-10.9 6 11.1zM669.4 303.9l6.3-10.8 6 11-6.4 10.9zM758.8 229.6l-10.8-6.4 11-5.9 10.9 6.3zM583.7 220.6l11.1-5.9 10.8 6.3-11 6z" fill="#FF9522" p-id="1376"></path><path d="M606.121438 173.234134a3.899844 3.899844 0 1 0 0.140343-7.798425 3.899844 3.899844 0 1 0-0.140343 7.798425Z" fill="#FFFFFF" p-id="1377"></path><path d="M674.7 336.6c-30.6-0.6-59.2-13-80.4-35-21.3-22-32.7-51-32.1-81.6s13-59.2 35-80.4c22-21.3 51-32.7 81.6-32.1 30.6 0.6 59.2 13 80.4 35 21.3 22 32.7 51 32.1 81.6-0.6 30.6-13 59.2-35 80.4-22 21.2-51 32.6-81.6 32.1z m3.9-217.7c-56.8-1-103.9 44.4-104.9 101.2-1 56.8 44.4 103.9 101.2 104.9s103.9-44.4 104.9-101.2c1.1-56.8-44.3-103.9-101.2-104.9z m-2.8 157.5L622.4 221l55.4-53.4 53.4 55.4-55.4 53.4z m-37.2-55.1l37.5 38.8 38.8-37.5-37.5-38.8-38.8 37.5z" fill="#2D2D2D" p-id="1378"></path><path d="M805 195.2c0 1.8-0.1 3.7-0.2 5.5-4.5 32.4-63.9 58.1-136.6 58.1-29 0-55.9-4.1-78-11-22.1 7-49 11-78 11s-55.9-4.1-78-11c-22.1 7-49 11-78 11-62.6 0-115.4-19-131.7-45C245 279.1 278 329.4 324 369.1s396.3 6.7 396.3 6.7S822.7 266 805 195.2z" fill="#F84A63" p-id="1379"></path><path d="M469.9 404.7c-114.2 0-144.1-12.9-156.3-23.5-49.2-42.4-83.3-95.6-104.3-162.7-2.4-7.7 1.3-15.9 8.6-19.3 7.3-3.4 16-0.8 20.3 6 11.4 18.2 56.7 37.5 118.2 37.5 26.4 0 51.7-3.6 73.2-10.3 3.1-1 6.5-1 9.6 0 21.4 6.7 46.7 10.3 73.2 10.3 26.4 0 51.7-3.6 73.2-10.3 3.1-1 6.5-1 9.6 0 21.4 6.7 46.7 10.3 73.2 10.3 73.2 0 117.5-25.7 120.7-43.8 0.1-1.3 0.1-2.7 0.2-4.1 0.2-8 6.2-14.7 14.2-15.6 8-0.9 15.4 4.2 17.3 12 8.4 33.8-4.3 77.4-37.8 129.4-23.9 37.1-49.6 64.9-50.7 66-2.7 2.9-6.3 4.7-10.2 5-0.9 0.1-89.1 8.3-181.8 11.6-26.7 1.1-49.9 1.5-70.4 1.5z m-211-146.9c18.7 38.9 43.6 71.7 75.6 99.2 2.8 2.4 16.1 10.4 71.8 13.9 34.2 2.2 78.8 2.3 132.4 0.4 77.8-2.7 152.5-9 174-10.9 20.3-22.8 55.9-69.1 71.2-111.6-27.7 16.1-68.7 25.9-115.7 25.9-27.7 0-54.6-3.6-78-10.3-23.4 6.8-50.2 10.3-78 10.3-27.7 0-54.6-3.6-78-10.3-23.4 6.8-50.2 10.3-78 10.3-32.2 0-62.7-4.7-88.5-13.7-3-1-6-2.1-8.8-3.2z" fill="#2D2D2D" p-id="1380"></path><path d="M287.5 325s107.9 46.3 241.1 39.5 224.8-42.2 224.8-42.2l16.9 48.4s-98 62.3-256.6 61.9c-144.1-0.3-250.1-60.6-255.9-64.2-5.8-3.6 29.7-43.4 29.7-43.4z" fill="#FFCB27" p-id="1381"></path><path d="M515 448.6h-1.3c-61.9-0.1-124.1-10.8-185-31.7-49.8-17.1-79-34.6-79.3-34.8-4.4-2.7-7.3-7.2-8.1-12.3-1.3-8.6 3.1-17.4 18.1-36.2 7.9-9.9 15.8-18.8 16.1-19.2l7.7-8.6 10.6 4.5c1 0.4 106.3 44.7 234 38.2 128.8-6.6 219-40.8 219.9-41.1l15.4-5.9 26.6 75.9-10.7 6.8c-1.1 0.7-26.6 16.7-72.1 32.7-41.5 14.5-108.3 31.7-191.9 31.7z m-236.5-87.3c31.5 15.9 120.7 55 235.4 55.2h1.2c121.9 0 206.8-38.1 235.8-53.3l-7.2-20.7c-31.9 10.4-110.3 32.5-214.2 37.8-112.3 5.7-206-24.7-237.2-36.4-5.4 6.4-10.3 12.6-13.8 17.4z" fill="#2D2D2D" p-id="1382"></path><path d="M315.733 348.837l30.547-9.536 18 57.657-30.548 9.536z" fill="#FF9522" p-id="1383"></path><path d="M440.7 440.4c-4.9-2.6-11.4-7.8-32.4-39.4-10.3-15.5-19.2-30.2-19.6-30.8l27.3-16.7c15.2 24.9 35.3 54.7 40.9 59.4 0 0-0.4-0.3-1.1-0.7l-15.1 28.2z" fill="#FF9522" p-id="1384"></path><path d="M557.3 448.4c-14.9-2.2-30.3-15.5-48.2-41.9-11.6-17.1-20-33.4-20.4-34.1l28.5-14.6c0.1 0.2 7.8 15.2 18.2 30.5 18 26.5 26.5 28.4 26.6 28.4l-4.7 31.7z" fill="#FF9522" p-id="1385"></path><path d="M660.7 429.6c-12.4-1.5-24.9-12.4-41.7-36.4-10.3-14.7-18.3-28.9-18.6-29.5l27.9-15.6c0.1 0.3 6.8 12.1 15.4 24.6 15.3 22.3 21.9 25.4 22.2 25.5 0 0-0.4-0.2-1.3-0.3l-3.9 31.7z" fill="#FF9522" p-id="1386"></path><path d="M727.8 400.8c-10.2 0-18-8.8-30.5-26.9-7.3-10.5-13.6-21-13.9-21.5l27.3-16.6c9.6 15.8 21.2 32.2 24.8 35.2-1-0.8-4.7-2.8-9.7-2l5.2 31.6c-1.1 0.1-2.2 0.2-3.2 0.2z" fill="#FF9522" p-id="1387"></path><path d="M515 448.6h-1.3c-61.9-0.1-124.1-10.8-185-31.7-49.8-17.1-79-34.6-79.3-34.8-4.4-2.7-7.3-7.2-8.1-12.3-1.3-8.6 3.1-17.4 18.1-36.2 7.9-9.9 15.8-18.8 16.1-19.2l7.7-8.6 10.6 4.5c1 0.4 106.3 44.7 234 38.2 128.8-6.6 219-40.8 219.9-41.1l15.4-5.9 26.6 75.9-10.7 6.8c-1.1 0.7-26.6 16.7-72.1 32.7-41.5 14.5-108.3 31.7-191.9 31.7z m-236.5-87.3c31.5 15.9 120.7 55 235.4 55.2h1.2c121.9 0 206.8-38.1 235.8-53.3l-7.2-20.7c-31.9 10.4-110.3 32.5-214.2 37.8-112.3 5.7-206-24.7-237.2-36.4-5.4 6.4-10.3 12.6-13.8 17.4z" fill="#2D2D2D" p-id="1388"></path><path d="M488.6 822.2L362.8 696.4c-19.6-19.6-19.6-51.3 0-70.9l125.8-125.8c19.6-19.6 51.3-19.6 70.9 0l125.8 125.8c19.6 19.6 19.6 51.3 0 70.9L559.5 822.2c-19.6 19.6-51.3 19.6-70.9 0z" fill="#FFEC00" p-id="1389"></path><path d="M442.5 616.5c-0.7-1.3-0.9-2.9 0.7-2.9h36.6c1.6 0 2.4-3.5 3.3-5.7 0.7-2 1.3-6.4 3.7-4.9l20.7 13.9c0.5 0.4 0.7 1.3 0.4 2-2.7 4.4-7.7 4-8.2 5.5-5.1 10.1-11.5 20.1-18.7 29.1-0.2 0.2-0.4 0.5-0.4 0.9v86.2c0 0.5-0.2 1.1-0.7 1.3-5.3 3.1-10.6 3.8-16.6 3.8-0.9 0-1.5-0.7-1.5-1.5v-67.3c0-1.3-1.5-1.8-2.4-1.1-4.6 3.8-9.3 7.5-14.3 10.6-1.5 0.7-2.9-0.9-2-2.2 2.4-3.1 4.9-6.6 7.3-10.2 1.1-1.8 11.3-17.7 11.3-19h0.2c6.2-11.7 12.1-24.1 17-36.4 0.4-0.9-0.4-2-1.3-2h-35.1z m27.8-10c-2 0.9-5.7 2.7-6.2 0.5-2.9-10.2-6.2-20.5-9.7-30-0.4-0.9 0.5-2 1.6-1.8 4.8 0.7 8.8 2 12.1 3.7 6.2 2.9 12.6 7.7 13 14.1 0.6 6.9-4.9 11.1-10.8 13.5z m24.4 80.8c-1.1 0.5-4 2.4-4.6 0.2-2.7-9.3-4.4-19.6-8-28.5-0.4-1.1 0.7-2.4 1.8-2 8 2.7 18.8 8.6 19.2 17.6 0.2 6.5-2.7 10.4-8.4 12.7z m12.8-94.2c-1.8 0-2-3.1 0-3.1h97.3c1.8 0 1.6 3.1-0.2 3.1h-97.1z m92 68.6c0.9-0.2 1.6 0.4 1.6 1.5v82c0 0.7-0.5 1.3-1.3 1.5-6 0.7-13.9-0.5-19-4.4-2-1.3 0.9-7.7-2.2-7.7h-50.1c-3.3 0 0.2 7.1-2.4 8.2-5.7 2.7-11.7 3.5-17.9 3.5-0.9 0-1.5-0.7-1.5-1.5v-82.1c0-0.7 0.7-1.5 1.6-1.5 6.8 0.9 12.6 2.4 18.3 5.3 0.9 0.5 48.3 0.2 53.4 0.2v-0.2l19.5-4.8z m-6-54.3v47.2c0 0.7-0.6 1.5-1.3 1.5-6.2 0.4-13.5-0.7-18.8-4-1.8-1.1 0.5-5.3-2.2-5.3h-33.8c-3.1 0 0.2 5.9-2.2 7-5.9 2.7-11.9 3.5-18.1 3.5-0.7 0-1.5-0.7-1.5-1.5v-48.5c0-0.9 0.7-1.6 1.6-1.5 6.6 0.7 12.3 2.4 18.1 5.1 0.7 0.4 33.3 0.2 37.1 0.2 1.3 0 16.6-4.4 19.2-4.9 1-0.5 1.9 0.3 1.9 1.2z m-65 62.4c-0.7 0-1.5 0.5-1.5 1.5v26c0 0.7 0.7 1.5 1.5 1.5h13.7c0.7 0 1.5-0.7 1.5-1.5v-26c0-0.9-0.7-1.5-1.5-1.5h-13.7z m0 31.8c-0.7 0-1.5 0.7-1.5 1.5v27.1c0 0.9 0.7 1.5 1.5 1.5h13.7c0.7 0 1.5-0.5 1.5-1.5v-27.1c0-0.7-0.7-1.5-1.5-1.5h-13.7z m8.8-87.4c-0.7 0-1.5 0.7-1.5 1.5v26.9c0 0.9 0.7 1.5 1.5 1.5h33.8c0.7 0 1.5-0.5 1.5-1.5v-26.9c0-0.7-0.7-1.5-1.5-1.5h-33.8z m28.2 55.6c-0.9 0-1.5 0.5-1.5 1.5v26c0 0.7 0.5 1.5 1.5 1.5h13.2c0.9 0 1.5-0.7 1.5-1.5v-26c0-0.9-0.5-1.5-1.5-1.5h-13.2z m0 31.8c-0.9 0-1.5 0.7-1.5 1.5v27.1c0 0.9 0.5 1.5 1.5 1.5h13.2c0.9 0 1.5-0.5 1.5-1.5v-27.1c0-0.7-0.5-1.5-1.5-1.5h-13.2z" fill="#F84A63" p-id="1390"></path><path d="M242.1 580.4c-7.1-20.5-6.3-60.6 2.5-122.5 6.3-44.1 14.3-82.2 14.6-83.8l31.3 6.6c-12.2 58.2-28 161-18.2 189.2l-30.2 10.5z" fill="#2D2D2D" p-id="1391"></path><path d="M253.3 575.2m-35.3 0a35.3 35.3 0 1 0 70.6 0 35.3 35.3 0 1 0-70.6 0Z" fill="#FFCB27" p-id="1392"></path><path d="M253.3 618.5c-23.9 0-43.3-19.4-43.3-43.3s19.4-43.3 43.3-43.3 43.3 19.4 43.3 43.3-19.4 43.3-43.3 43.3z m0-70.6c-15.1 0-27.3 12.2-27.3 27.3s12.2 27.3 27.3 27.3c15.1 0 27.3-12.2 27.3-27.3s-12.2-27.3-27.3-27.3z" fill="#2D2D2D" p-id="1393"></path><path d="M240.053242 574.519088a8.1 8.1 0 1 0 11.45493-11.45533 8.1 8.1 0 1 0-11.45493 11.45533Z" fill="#FFFFFF" p-id="1394"></path></svg>