<?xml version="1.0" standalone="no"?><!DOCTYPE svg PUBLIC "-//W3C//DTD SVG 1.1//EN" "http://www.w3.org/Graphics/SVG/1.1/DTD/svg11.dtd"><svg t="1524452846311" class="icon" style="" viewBox="0 0 1024 1024" version="1.1" xmlns="http://www.w3.org/2000/svg" p-id="1518" xmlns:xlink="http://www.w3.org/1999/xlink" width="200" height="200"><defs><style type="text/css"></style></defs><path d="M741.8 904.2H282.2C226 904.2 180 858.2 180 802V222c0-56.2 46-102.2 102.2-102.2h459.6c56.2 0 102.2 46 102.2 102.2v580c0 56.2-46 102.2-102.2 102.2z" fill="#F84A63" p-id="1519"></path><path d="M741.8 920.2H282.2C217 920.2 164 867.2 164 802V222c0-65.2 53-118.2 118.2-118.2h459.6c65.2 0 118.2 53 118.2 118.2v580c0 65.2-53 118.2-118.2 118.2zM282.2 135.8c-47.5 0-86.2 38.7-86.2 86.2v580c0 47.5 38.7 86.2 86.2 86.2h459.6c47.5 0 86.2-38.7 86.2-86.2V222c0-47.5-38.7-86.2-86.2-86.2H282.2z" fill="#2D2D2D" p-id="1520"></path><path d="M512 500.1m-187.5 0a187.5 187.5 0 1 0 375 0 187.5 187.5 0 1 0-375 0Z" fill="#ED2B50" p-id="1521"></path><path d="M741.8 845.5H282.2c-56.2 0-102.2-46-102.2-102.2V802c0 56.2 46 102.2 102.2 102.2h459.6c56.2 0 102.2-46 102.2-102.2v-58.6c0 56.1-46 102.1-102.2 102.1zM826.7 191.9L665.2 378.8l-18-22.1L816 169.1zM201.3 191.9l161.4 186.9 18-22.1-168.8-187.6z" fill="#ED2B50" p-id="1522"></path><path d="M816 158L578.4 437.7c-33.2 39.1-93.5 39.4-127.2 0.7L208 158" fill="#F84A63" p-id="1523"></path><path d="M514.5 483.3c-29 0-56.4-12.5-75.4-34.4L195.9 168.5c-5.8-6.7-5.1-16.8 1.6-22.6 6.7-5.8 16.8-5.1 22.6 1.6l243.2 280.3c12.9 14.9 31.5 23.4 51.2 23.4h0.3c19.8-0.1 38.5-8.8 51.3-23.9l237.6-279.7c5.7-6.7 15.8-7.6 22.6-1.8 6.7 5.7 7.6 15.8 1.8 22.6L590.5 448.1c-18.9 22.2-46.4 35-75.5 35.2h-0.5z" fill="#2D2D2D" p-id="1524"></path><path d="M512 482.8m-176 0a176 176 0 1 0 352 0 176 176 0 1 0-352 0Z" fill="#FFCB27" p-id="1525"></path><path d="M512 674.8c-105.9 0-192-86.1-192-192s86.1-192 192-192 192 86.1 192 192-86.1 192-192 192z m0-352c-88.2 0-160 71.8-160 160s71.8 160 160 160 160-71.8 160-160-71.8-160-160-160z" fill="#2D2D2D" p-id="1526"></path><path d="M546.9 447.9l63.9 34.9-63.9 34.9-34.9 63.9-34.9-63.9-63.9-34.9 63.9-34.9L512 384z" fill="#FF9522" p-id="1527"></path><path d="M269.9 179.9c-0.5 0-1 0-1.4-0.1-0.5 0-0.9-0.1-1.4-0.2-0.5-0.1-0.9-0.2-1.4-0.4-0.5-0.1-0.9-0.3-1.3-0.5s-0.9-0.4-1.3-0.6c-0.4-0.2-0.8-0.5-1.2-0.7-0.4-0.3-0.8-0.5-1.1-0.8-0.4-0.3-0.7-0.6-1.1-1-0.3-0.3-0.7-0.7-1-1.1-0.3-0.4-0.6-0.8-0.8-1.1-0.3-0.4-0.5-0.8-0.7-1.2-0.2-0.4-0.4-0.8-0.6-1.3-0.2-0.4-0.3-0.9-0.5-1.3-0.1-0.5-0.3-0.9-0.3-1.4-0.1-0.5-0.2-0.9-0.2-1.4 0-0.5-0.1-1-0.1-1.4 0-0.5 0-1 0.1-1.4 0.1-0.5 0.1-0.9 0.2-1.4 0.1-0.5 0.2-0.9 0.3-1.4 0.1-0.5 0.3-0.9 0.5-1.3s0.4-0.9 0.6-1.3c0.2-0.4 0.5-0.8 0.7-1.2 0.3-0.4 0.5-0.8 0.8-1.2 0.3-0.4 0.6-0.7 1-1.1 0.3-0.3 0.7-0.7 1.1-1 0.4-0.3 0.8-0.6 1.1-0.8 0.4-0.3 0.8-0.5 1.2-0.7 0.4-0.2 0.8-0.4 1.3-0.6 0.4-0.2 0.9-0.3 1.3-0.5 0.5-0.1 0.9-0.3 1.4-0.4 0.5-0.1 0.9-0.2 1.4-0.2 0.9-0.1 1.9-0.1 2.9 0 0.5 0 0.9 0.1 1.4 0.2 0.5 0.1 0.9 0.2 1.4 0.4 0.5 0.1 0.9 0.3 1.3 0.5s0.9 0.4 1.3 0.6c0.4 0.2 0.8 0.5 1.2 0.7 0.4 0.3 0.8 0.5 1.2 0.8 0.4 0.3 0.7 0.6 1.1 1 0.3 0.3 0.7 0.7 1 1.1l0.9 1.2c0.3 0.4 0.5 0.8 0.7 1.2 0.2 0.4 0.4 0.9 0.6 1.3 0.2 0.4 0.3 0.9 0.5 1.3 0.1 0.5 0.3 0.9 0.3 1.4 0.1 0.5 0.2 0.9 0.2 1.4 0.1 0.5 0.1 1 0.1 1.4 0 0.5 0 1-0.1 1.4 0 0.5-0.1 0.9-0.2 1.4-0.1 0.5-0.2 0.9-0.3 1.4-0.1 0.5-0.3 0.9-0.5 1.3s-0.4 0.9-0.6 1.3c-0.2 0.4-0.5 0.8-0.7 1.2-0.3 0.4-0.6 0.8-0.9 1.1-0.3 0.4-0.6 0.7-1 1.1-0.3 0.3-0.7 0.7-1.1 1-0.4 0.3-0.8 0.6-1.2 0.8-0.4 0.3-0.8 0.5-1.2 0.7-0.4 0.2-0.9 0.4-1.3 0.6-0.4 0.2-0.9 0.3-1.3 0.5-0.5 0.1-0.9 0.3-1.4 0.4-0.5 0.1-0.9 0.2-1.4 0.2-0.5 0-1 0.1-1.5 0.1zM484.3 181.3H327c-8.8 0-16-7.2-16-16s7.2-16 16-16h157.3c8.8 0 16 7.2 16 16s-7.2 16-16 16z" fill="#FFFFFF" p-id="1528"></path><path d="M410.3 411.5c-3.5 0-7.1-1.2-10-3.5-6.9-5.5-8-15.6-2.4-22.5 27.3-33.9 67.9-53.3 111.3-53.3 8.8 0 16 7.2 16 16s-7.2 16-16 16c-33.7 0-65.2 15.1-86.4 41.4-3.2 3.9-7.8 5.9-12.5 5.9z" fill="#FFFFFF" p-id="1529"></path><path d="M380.7 462.9c-0.5 0-1 0-1.4-0.1-0.5 0-0.9-0.1-1.4-0.2-0.5-0.1-0.9-0.2-1.4-0.4-0.5-0.1-0.9-0.3-1.3-0.5s-0.9-0.4-1.3-0.6c-0.4-0.2-0.8-0.5-1.2-0.7-0.4-0.3-0.8-0.5-1.1-0.8-0.4-0.3-0.7-0.6-1.1-1-0.3-0.3-0.7-0.7-1-1.1-0.3-0.4-0.6-0.8-0.8-1.1-0.3-0.4-0.5-0.8-0.7-1.2-0.2-0.4-0.4-0.8-0.6-1.3-0.2-0.4-0.3-0.9-0.5-1.3-0.1-0.5-0.3-0.9-0.3-1.4-0.1-0.5-0.2-0.9-0.2-1.4 0-0.5-0.1-1-0.1-1.4s0-1 0.1-1.4c0.1-0.5 0.1-0.9 0.2-1.4 0.1-0.5 0.2-0.9 0.3-1.4 0.1-0.5 0.3-0.9 0.5-1.3s0.4-0.9 0.6-1.3c0.2-0.4 0.5-0.8 0.7-1.2 0.3-0.4 0.5-0.8 0.8-1.2 0.3-0.4 0.6-0.7 1-1.1 0.3-0.3 0.7-0.7 1.1-1 0.4-0.3 0.8-0.6 1.1-0.8 0.4-0.3 0.8-0.5 1.2-0.7 0.4-0.2 0.8-0.4 1.3-0.6 0.4-0.2 0.9-0.3 1.3-0.5 0.5-0.1 0.9-0.3 1.4-0.4 0.5-0.1 0.9-0.2 1.4-0.2 0.9-0.1 1.9-0.1 2.9 0 0.5 0 0.9 0.1 1.4 0.2 0.5 0.1 0.9 0.2 1.4 0.4 0.5 0.1 0.9 0.3 1.3 0.5s0.9 0.4 1.3 0.6c0.4 0.2 0.8 0.5 1.2 0.7 0.4 0.3 0.8 0.5 1.2 0.8 0.4 0.3 0.7 0.6 1.1 1 0.3 0.3 0.7 0.7 1 1.1l0.9 1.2c0.3 0.4 0.5 0.8 0.7 1.2 0.2 0.4 0.4 0.9 0.6 1.3 0.2 0.4 0.3 0.9 0.5 1.3 0.1 0.5 0.3 0.9 0.3 1.4 0.1 0.5 0.2 0.9 0.2 1.4 0.1 0.5 0.1 1 0.1 1.4s0 1-0.1 1.4c0 0.5-0.1 0.9-0.2 1.4-0.1 0.5-0.2 0.9-0.3 1.4-0.1 0.5-0.3 0.9-0.5 1.3s-0.4 0.9-0.6 1.3c-0.2 0.4-0.5 0.8-0.7 1.2-0.3 0.4-0.6 0.8-0.9 1.1-0.3 0.4-0.6 0.7-1 1.1-0.3 0.3-0.7 0.7-1.1 1-0.4 0.3-0.8 0.6-1.2 0.8-0.4 0.3-0.8 0.5-1.2 0.7-0.4 0.2-0.9 0.4-1.3 0.6-0.4 0.2-0.9 0.3-1.3 0.5-0.5 0.1-0.9 0.3-1.4 0.4-0.5 0.1-0.9 0.2-1.4 0.2-0.5 0.1-1 0.1-1.5 0.1z" fill="#FFFFFF" p-id="1530"></path><path d="M741.8 920.2H282.2C217 920.2 164 867.2 164 802V222c0-65.2 53-118.2 118.2-118.2h459.6c65.2 0 118.2 53 118.2 118.2v580c0 65.2-53 118.2-118.2 118.2zM282.2 135.8c-47.5 0-86.2 38.7-86.2 86.2v580c0 47.5 38.7 86.2 86.2 86.2h459.6c47.5 0 86.2-38.7 86.2-86.2V222c0-47.5-38.7-86.2-86.2-86.2H282.2z" fill="#2D2D2D" p-id="1531"></path></svg>