<?xml version="1.0" standalone="no"?><!DOCTYPE svg PUBLIC "-//W3C//DTD SVG 1.1//EN" "http://www.w3.org/Graphics/SVG/1.1/DTD/svg11.dtd"><svg class="icon" width="200px" height="200.00px" viewBox="0 0 1024 1024" version="1.1" xmlns="http://www.w3.org/2000/svg"><path d="M512 0C229.230208 0 0 229.230208 0 512 0 794.769792 229.230208 1024 512 1024 761.325865 1024 973.201958 844.559514 1016.153097 601.764678 1018.151127 590.470182 1019.771663 579.089182 1021.010022 567.635639 1022.492753 553.921916 1012.577574 541.602754 998.863851 540.120021 985.150125 538.637291 972.830963 548.552469 971.348233 562.266193 970.230573 572.603369 968.768273 582.873092 966.965602 593.063262 928.217702 812.097967 736.992706 974.048781 512 974.048781 256.817504 974.048781 49.951219 767.182496 49.951219 512 49.951219 256.817504 256.817504 49.951219 512 49.951219 698.044361 49.951219 863.703281 160.916567 936.293348 328.7543 941.768939 341.414579 956.470965 347.238921 969.131243 341.763332 981.791522 336.287742 987.615863 321.585717 982.140273 308.925438 901.710383 122.961007 718.143277 0 512 0ZM958.442797 350.246554 983.418406 325.270944 724.292683 325.270944C710.499034 325.270944 699.317073 336.452907 699.317073 350.246554 699.317073 364.040203 710.499034 375.222163 724.292683 375.222163L983.418406 375.222163C997.212055 375.222163 1008.394016 364.040203 1008.394016 350.246554L1008.394016 74.926829C1008.394016 61.133181 997.212055 49.951219 983.418406 49.951219 969.624757 49.951219 958.442797 61.133181 958.442797 74.926829L958.442797 350.246554Z" /></svg>
