<?xml version="1.0" standalone="no"?><!DOCTYPE svg PUBLIC "-//W3C//DTD SVG 1.1//EN" "http://www.w3.org/Graphics/SVG/1.1/DTD/svg11.dtd"><svg t="1525490735337" class="icon" style="" viewBox="0 0 1024 1024" version="1.1" xmlns="http://www.w3.org/2000/svg" p-id="7984" xmlns:xlink="http://www.w3.org/1999/xlink" width="200" height="200"><defs><style type="text/css"></style></defs><path d="M838.4 819.2c0 14.08-11.52 25.6-25.6 25.6h-563.2c-14.08 0-25.6-11.52-25.6-25.6V243.2c0-14.08 11.52-25.6 25.6-25.6h563.2c14.08 0 25.6 11.52 25.6 25.6v576z" fill="#F7E6A3" p-id="7985"></path><path d="M812.8 857.6h-563.2c-21.76 0-38.4-16.64-38.4-38.4V243.2c0-21.76 16.64-38.4 38.4-38.4h563.2c21.76 0 38.4 16.64 38.4 38.4v576c0 21.76-16.64 38.4-38.4 38.4z m-563.2-627.2c-7.68 0-12.8 5.12-12.8 12.8v576c0 7.68 5.12 12.8 12.8 12.8h563.2c7.68 0 12.8-5.12 12.8-12.8V243.2c0-7.68-5.12-12.8-12.8-12.8h-563.2z" fill="#231C1C" p-id="7986"></path><path d="M224 512m-76.8 0a76.8 76.8 0 1 0 153.6 0 76.8 76.8 0 1 0-153.6 0Z" fill="#E42710" p-id="7987"></path><path d="M224 601.6c-49.92 0-89.6-39.68-89.6-89.6s39.68-89.6 89.6-89.6 89.6 39.68 89.6 89.6-39.68 89.6-89.6 89.6z m0-153.6c-35.84 0-64 28.16-64 64s28.16 64 64 64 64-28.16 64-64-28.16-64-64-64z" fill="#231C1C" p-id="7988"></path><path d="M838.4 512m-76.8 0a76.8 76.8 0 1 0 153.6 0 76.8 76.8 0 1 0-153.6 0Z" fill="#E42710" p-id="7989"></path><path d="M838.4 601.6c-49.92 0-89.6-39.68-89.6-89.6s39.68-89.6 89.6-89.6 89.6 39.68 89.6 89.6-39.68 89.6-89.6 89.6z m0-153.6c-35.84 0-64 28.16-64 64s28.16 64 64 64 64-28.16 64-64-28.16-64-64-64z" fill="#231C1C" p-id="7990"></path><path d="M761.6 691.2c0 14.08-11.52 25.6-25.6 25.6h-409.6c-14.08 0-25.6-11.52-25.6-25.6V358.4c0-14.08 11.52-25.6 25.6-25.6h409.6c14.08 0 25.6 11.52 25.6 25.6v332.8z" fill="#6FB0BE" p-id="7991"></path><path d="M736 729.6h-409.6c-21.76 0-38.4-16.64-38.4-38.4V358.4c0-21.76 16.64-38.4 38.4-38.4h409.6c21.76 0 38.4 16.64 38.4 38.4v332.8c0 21.76-16.64 38.4-38.4 38.4z m-409.6-384c-7.68 0-12.8 5.12-12.8 12.8v332.8c0 7.68 5.12 12.8 12.8 12.8h409.6c7.68 0 12.8-5.12 12.8-12.8V358.4c0-7.68-5.12-12.8-12.8-12.8h-409.6z" fill="#231C1C" p-id="7992"></path><path d="M531.2 512m-76.8 0a76.8 76.8 0 1 0 153.6 0 76.8 76.8 0 1 0-153.6 0Z" fill="#E42710" p-id="7993"></path><path d="M531.2 601.6c-49.92 0-89.6-39.68-89.6-89.6s39.68-89.6 89.6-89.6 89.6 39.68 89.6 89.6-39.68 89.6-89.6 89.6z m0-153.6c-35.84 0-64 28.16-64 64s28.16 64 64 64 64-28.16 64-64-28.16-64-64-64z" fill="#231C1C" p-id="7994"></path><path d="M915.2 512h-768l51.2-230.4h665.6z" fill="#E42710" p-id="7995"></path><path d="M915.2 524.8h-768c-3.84 0-7.68-1.28-10.24-5.12-2.56-2.56-3.84-6.4-2.56-10.24l51.2-230.4c1.28-6.4 6.4-10.24 12.8-10.24h665.6c6.4 0 11.52 3.84 12.8 10.24l51.2 230.4c1.28 3.84 0 7.68-2.56 10.24-2.56 3.84-6.4 5.12-10.24 5.12z m-752.64-25.6h736l-46.08-204.8H208.64l-46.08 204.8z" fill="#231C1C" p-id="7996"></path><path d="M377.6 512m-76.8 0a76.8 76.8 0 1 0 153.6 0 76.8 76.8 0 1 0-153.6 0Z" fill="#FAF1C7" p-id="7997"></path><path d="M377.6 601.6c-49.92 0-89.6-39.68-89.6-89.6s39.68-89.6 89.6-89.6 89.6 39.68 89.6 89.6-39.68 89.6-89.6 89.6z m0-153.6c-35.84 0-64 28.16-64 64s28.16 64 64 64 64-28.16 64-64-28.16-64-64-64z" fill="#231C1C" p-id="7998"></path><path d="M684.8 512m-76.8 0a76.8 76.8 0 1 0 153.6 0 76.8 76.8 0 1 0-153.6 0Z" fill="#FAF1C7" p-id="7999"></path><path d="M684.8 601.6c-49.92 0-89.6-39.68-89.6-89.6s39.68-89.6 89.6-89.6 89.6 39.68 89.6 89.6-39.68 89.6-89.6 89.6z m0-153.6c-35.84 0-64 28.16-64 64s28.16 64 64 64 64-28.16 64-64-28.16-64-64-64z" fill="#231C1C" p-id="8000"></path><path d="M454.4 512h-153.6l25.6-230.4h140.8z" fill="#FAF1C7" p-id="8001"></path><path d="M454.4 524.8h-153.6c-3.84 0-7.68-1.28-8.96-3.84-2.56-2.56-3.84-6.4-2.56-10.24l25.6-230.4c1.28-6.4 6.4-11.52 12.8-11.52h140.8c3.84 0 6.4 1.28 8.96 3.84 2.56 2.56 3.84 6.4 3.84 8.96l-12.8 230.4c-1.28 7.68-7.68 12.8-14.08 12.8z m-139.52-25.6h126.72l11.52-204.8h-115.2l-23.04 204.8z" fill="#231C1C" p-id="8002"></path><path d="M761.6 512h-153.6l-12.8-230.4h140.8z" fill="#FAF1C7" p-id="8003"></path><path d="M761.6 524.8h-153.6c-6.4 0-12.8-5.12-12.8-11.52l-12.8-230.4c0-3.84 1.28-6.4 3.84-8.96 2.56-2.56 6.4-3.84 8.96-3.84h140.8c6.4 0 11.52 5.12 12.8 11.52l25.6 230.4c0 3.84-1.28 7.68-2.56 10.24s-6.4 2.56-10.24 2.56z m-142.08-25.6h126.72l-23.04-204.8h-115.2l11.52 204.8z" fill="#231C1C" p-id="8004"></path></svg>