<?xml version="1.0" standalone="no"?><!DOCTYPE svg PUBLIC "-//W3C//DTD SVG 1.1//EN" "http://www.w3.org/Graphics/SVG/1.1/DTD/svg11.dtd"><svg class="icon" width="200px" height="200.00px" viewBox="0 0 1024 1024" version="1.1" xmlns="http://www.w3.org/2000/svg"><path d="M464.247573 677.487844C474.214622 686.649009 489.665824 686.201589 499.086059 676.479029L798.905035 367.037897C808.503379 357.131511 808.253662 341.319802 798.347275 331.721455 788.44089 322.12311 772.62918 322.372828 763.030833 332.279215L463.211857 641.720346 498.050342 640.711531 316.608838 473.940461C306.453342 464.606084 290.653675 465.271735 281.319298 475.427234 271.984922 485.582733 272.650573 501.382398 282.806071 510.716774L464.247573 677.487844ZM1024 512C1024 229.230208 794.769792 0 512 0 229.230208 0 0 229.230208 0 512 0 794.769792 229.230208 1024 512 1024 629.410831 1024 740.826187 984.331046 830.768465 912.686662 841.557579 904.092491 843.33693 888.379234 834.742758 877.590121 826.148587 866.801009 810.43533 865.021658 799.646219 873.615827 718.470035 938.277495 618.001779 974.048781 512 974.048781 256.817504 974.048781 49.951219 767.182496 49.951219 512 49.951219 256.817504 256.817504 49.951219 512 49.951219 767.182496 49.951219 974.048781 256.817504 974.048781 512 974.048781 599.492834 949.714859 683.336764 904.470807 755.960693 897.177109 767.668243 900.755245 783.071797 912.462793 790.365493 924.170342 797.659191 939.573897 794.081058 946.867595 782.373508 997.013826 701.880796 1024 608.898379 1024 512Z" /></svg>
